<svg width="242" height="303" viewBox="0 0 242 303" fill="none" xmlns="http://www.w3.org/2000/svg">
<path d="M144 197.5C143.6 215.9 112.833 275.5 97.5 303C119.667 283.5 170.2 235.6 195 200C219.8 164.4 219.667 127.5 216.5 113.5L184 0L168 84.5C153 85.8333 122 88.5 118 88.5C113 88.5 107.5 91 106.5 93.5C105.5 96 97.5 110 81.5 113.5C65.5 117 2.5 124.5 0.499997 127C-1.1 129 25.5 148.833 39 158.5C52.6667 159.333 86.8 161.6 114 164C148 167 144.5 174.5 144 197.5Z" fill="#0D3163"/>
<path d="M233 170C230.2 209.6 167.167 269.5 136 294.5C144.833 288.833 163.6 277.3 168 276.5C173.5 275.5 202.5 261 224 240C241.2 223.2 242.833 204.667 241.5 197.5C241.167 194 239 183.6 233 170Z" fill="#0D3163"/>
</svg>
