<svg width="42" height="42" viewBox="0 0 42 42" fill="none" xmlns="http://www.w3.org/2000/svg">
<rect x="0.5" y="1.5" width="39" height="28" rx="5.5" stroke="#00CBBB"/>
<path d="M0.5 8L17.3752 18.658C18.6742 19.4784 20.3283 19.4823 21.6311 18.668L39.5 7.5" stroke="#00CBBB"/>
<g clip-path="url(#clip0_197_32)">
<path d="M21.8221 14.0137C22.1035 13.87 22.3703 13.6994 22.6179 13.5036C23.2123 13.0337 23.6959 12.4193 24.0035 11.6871C24.0282 11.6284 24.0515 11.5696 24.0734 11.5106C24.8288 9.47727 23.9832 7.24486 22.1223 6.12305C23.232 7.19417 23.7519 8.7387 23.4582 10.2567C23.4 10.5576 23.2569 11.7752 22.3615 12.4535C21.6009 13.1344 20.4679 13.374 19.4368 12.9786C18.0183 12.4347 17.3299 10.8953 17.8992 9.54006C17.912 9.50946 17.9254 9.47922 17.9393 9.44934C17.7748 9.65814 17.636 9.89091 17.5293 10.145C16.8875 11.6728 17.6409 13.405 19.2135 14.0536C19.2391 14.0642 19.2648 14.0744 19.2907 14.0843C19.7048 14.2431 20.1332 14.3125 20.5526 14.3021C20.995 14.2911 21.4273 14.1912 21.8221 14.0137Z" fill="#00CBBB" stroke="#00CBBB" stroke-width="0.188079" stroke-linecap="round" stroke-linejoin="round"/>
<path d="M16.7412 5.79667C16.4598 5.94037 16.193 6.11102 15.9454 6.30678C15.351 6.77674 14.8673 7.39112 14.5598 8.12332C14.5351 8.18195 14.5118 8.24079 14.4899 8.29983C13.7345 10.3331 14.5801 12.5655 16.441 13.6874C15.3313 12.6162 14.8114 11.0717 15.1051 9.55375C15.1633 9.25285 15.3064 8.03525 16.2018 7.35688C16.9624 6.67601 18.0954 6.43641 19.1265 6.83177C20.545 7.37567 21.2334 8.91514 20.6641 10.2703C20.6513 10.3009 20.6379 10.3312 20.624 10.3611C20.7885 10.1523 20.9273 9.91949 21.034 9.66536C21.6758 8.1376 20.9224 6.4054 19.3497 5.75677C19.3242 5.74625 19.2985 5.73603 19.2726 5.72607C18.8585 5.56728 18.4301 5.49792 18.0107 5.50834C17.5683 5.51933 17.136 5.61918 16.7412 5.79667Z" fill="#00CBBB" stroke="#00CBBB" stroke-width="0.188079" stroke-linecap="round" stroke-linejoin="round"/>
</g>
<defs>
<clipPath id="clip0_197_32">
<rect width="14.5627" height="13.8104" fill="white" transform="translate(12 3)"/>
</clipPath>
</defs>
</svg>
