<svg width="42" height="42" viewBox="0 0 42 42" fill="none" xmlns="http://www.w3.org/2000/svg">
<rect x="0.5" y="1.5" width="39" height="39" rx="5.5" stroke="#00CBBB"/>
<path d="M13.5072 13.0049H10.5072C9.24241 12.9523 8.94743 13.3121 9.00723 14.5049C9.95364 26.4764 16.9892 31.0194 23.2572 32.5049C27.7468 33.0068 28.6532 32.5689 28.5072 31.0049V27.4035C28.5072 27.3047 28.4985 27.2056 28.4752 27.1095C28.2935 26.3593 27.9463 26.0707 27.2202 25.8234C27.08 25.7756 26.9332 25.7549 26.7851 25.7549C26.077 25.7549 23.8832 25.7548 23.2572 25.7549C22.872 25.755 22.5405 25.9268 22.2816 26.2089C21.8128 26.7199 21.2684 27.2549 20.575 27.2549H20.0252C19.6896 27.2549 19.3617 27.1418 19.0993 26.9326C16.4976 24.8592 15.7798 23.9055 14.5416 21.1478C14.3593 20.7419 14.3723 20.2751 14.5713 19.8772L15.599 17.8218C15.7032 17.6135 15.7574 17.3846 15.7574 17.1517V14.5051C15.7574 13.0051 15.0183 13.0319 13.5072 13.0049Z" stroke="#00CBBB" stroke-width="0.9"/>
<g clip-path="url(#clip0_197_62)">
<path d="M27.8226 20.0137C28.1039 19.87 28.3707 19.6994 28.6184 19.5036C29.2128 19.0337 29.6964 18.4193 30.004 17.6871C30.0287 17.6284 30.052 17.5696 30.0739 17.5106C30.8293 15.4773 29.9837 13.2449 28.1227 12.123C29.2325 13.1942 29.7524 14.7387 29.4587 16.2567C29.4005 16.5576 29.2574 17.7752 28.362 18.4535C27.6014 19.1344 26.4684 19.374 25.4373 18.9786C24.0188 18.4347 23.3304 16.8953 23.8997 15.5401C23.9125 15.5095 23.9259 15.4792 23.9398 15.4493C23.7753 15.6581 23.6365 15.8909 23.5298 16.145C22.888 17.6728 23.6414 19.405 25.214 20.0536C25.2396 20.0642 25.2652 20.0744 25.2912 20.0843C25.7053 20.2431 26.1337 20.3125 26.553 20.3021C26.9955 20.2911 27.4278 20.1912 27.8226 20.0137Z" fill="#00CBBB" stroke="#00CBBB" stroke-width="0.188079" stroke-linecap="round" stroke-linejoin="round"/>
<path d="M22.7417 11.7962C22.4603 11.9399 22.1935 12.1105 21.9459 12.3063C21.3515 12.7763 20.8678 13.3906 20.5602 14.1228C20.5356 14.1815 20.5123 14.2403 20.4904 14.2993C19.735 16.3326 20.5806 18.5651 22.4415 19.6869C21.3317 18.6157 20.8119 17.0712 21.1056 15.5533C21.1638 15.2524 21.3069 14.0348 22.2023 13.3564C22.9629 12.6755 24.0959 12.4359 25.127 12.8313C26.5454 13.3752 27.2339 14.9146 26.6646 16.2699C26.6517 16.3005 26.6384 16.3307 26.6244 16.3606C26.789 16.1518 26.9278 15.919 27.0345 15.6649C27.6763 14.1371 26.9229 12.4049 25.3502 11.7563C25.3247 11.7458 25.299 11.7355 25.2731 11.7256C24.859 11.5668 24.4306 11.4974 24.0112 11.5079C23.5688 11.5188 23.1364 11.6187 22.7417 11.7962Z" fill="#00CBBB" stroke="#00CBBB" stroke-width="0.188079" stroke-linecap="round" stroke-linejoin="round"/>
</g>
<defs>
<clipPath id="clip0_197_62">
<rect width="14.5627" height="13.8104" fill="white" transform="translate(18 9)"/>
</clipPath>
</defs>
</svg>
