<svg width="79" height="78" viewBox="0 0 79 78" fill="none" xmlns="http://www.w3.org/2000/svg">
<g clip-path="url(#clip0_217_263)">
<rect width="18.2033" height="17.2629" transform="translate(30 1)" fill="white"/>
<path d="M42.2782 14.7677C42.6299 14.588 42.9634 14.3747 43.273 14.13C44.016 13.5426 44.6205 12.7746 45.005 11.8593C45.0359 11.786 45.0649 11.7125 45.0923 11.6387C46.0366 9.09707 44.9796 6.30657 42.6534 4.9043C44.0407 6.24319 44.6905 8.17386 44.3234 10.0713C44.2506 10.4474 44.0717 11.9694 42.9525 12.8174C42.0017 13.6685 40.5854 13.968 39.2966 13.4738C37.5235 12.7939 36.663 10.8696 37.3746 9.17556C37.3907 9.13731 37.4074 9.09951 37.4248 9.06216C37.2191 9.32316 37.0456 9.61413 36.9122 9.93179C36.11 11.8415 37.0517 14.0067 39.0175 14.8175C39.0494 14.8307 39.0816 14.8434 39.114 14.8559C39.6316 15.0544 40.1671 15.1411 40.6913 15.1281C41.2443 15.1143 41.7848 14.9895 42.2782 14.7677Z" fill="#00CBBB" stroke="#00CBBB" stroke-width="0.235098" stroke-linecap="round" stroke-linejoin="round"/>
<path d="M35.9271 4.49547C35.5754 4.67509 35.2419 4.88841 34.9324 5.1331C34.1893 5.72056 33.5848 6.48853 33.2003 7.40379C33.1695 7.47708 33.1404 7.55062 33.113 7.62442C32.1688 10.1661 33.2257 12.9566 35.5519 14.3588C34.1647 13.0199 33.5149 11.0893 33.882 9.19182C33.9547 8.81569 34.1336 7.29369 35.2529 6.44573C36.2036 5.59465 37.6199 5.29514 38.9088 5.78935C40.6818 6.46922 41.5423 8.39355 40.8307 10.0876C40.8147 10.1258 40.7979 10.1636 40.7806 10.201C40.9862 9.93997 41.1597 9.649 41.2931 9.33133C42.0954 7.42163 41.1536 5.25638 39.1878 4.4456C39.1559 4.43245 39.1238 4.41968 39.0913 4.40723C38.5737 4.20873 38.0382 4.12203 37.514 4.13506C36.961 4.1488 36.4206 4.27361 35.9271 4.49547Z" fill="#00CBBB" stroke="#00CBBB" stroke-width="0.235098" stroke-linecap="round" stroke-linejoin="round"/>
</g>
<path d="M26.125 17.5H29.3125C30.6932 17.5 31.8125 18.6193 31.8125 20V24.1875M39.125 16.1875V24.1875M52.3125 17.5H49.75C48.3693 17.5 47.25 18.6193 47.25 20V24.1875M65.4375 29.125V31.75C65.4375 33.1307 64.3182 34.25 62.9375 34.25H57.5625M66.625 42.25H57.5625M65.4375 55.0625V52.0625C65.4375 50.6818 64.3182 49.5625 62.9375 49.5625H57.25M46.5 60.0625V63.9375C46.5 65.3182 47.6193 66.4375 49 66.4375H52.3125M39.125 60.0625V68.3125M31.875 60.0625V64.25C31.875 65.6307 30.7557 66.75 29.375 66.75H26.1875M21.1875 49.5625H16.0625C14.6818 49.5625 13.5625 50.6818 13.5625 52.0625V55.0625M20.875 42.25H11.5M21.1875 34.625H16.0625C14.6818 34.625 13.5625 33.5057 13.5625 32.125V28.75" stroke="#00CBBB" stroke-width="1.25" stroke-linecap="round"/>
<circle cx="55.625" cy="17.5" r="2.375" stroke="#00CBBB" stroke-width="1.5"/>
<circle cx="69.75" cy="42.125" r="2.375" stroke="#00CBBB" stroke-width="1.5"/>
<circle cx="65.375" cy="57.875" r="2.375" stroke="#00CBBB" stroke-width="1.5"/>
<circle cx="55.625" cy="66.625" r="2.375" stroke="#00CBBB" stroke-width="1.5"/>
<circle cx="39.125" cy="71.5" r="2.375" stroke="#00CBBB" stroke-width="1.5"/>
<circle cx="23.25" cy="66.625" r="2.375" stroke="#00CBBB" stroke-width="1.5"/>
<circle cx="13.75" cy="57.875" r="2.375" stroke="#00CBBB" stroke-width="1.5"/>
<circle cx="8.375" cy="42.25" r="2.375" stroke="#00CBBB" stroke-width="1.5"/>
<circle cx="13.75" cy="25.75" r="2.375" stroke="#00CBBB" stroke-width="1.5"/>
<circle cx="23.25" cy="17.5" r="2.375" stroke="#00CBBB" stroke-width="1.5"/>
<circle cx="65.375" cy="26.375" r="2.375" stroke="#00CBBB" stroke-width="1.5"/>
<rect x="21.75" y="24.875" width="35.375" height="34.5" rx="5" stroke="#00CBBB" stroke-width="1.25"/>
<g clip-path="url(#clip1_217_263)">
<rect x="25.75" y="28.75" width="26.875" height="26.625" rx="1.875" fill="#00CBBB"/>
<path d="M29.0038 48.75L35.0788 35.5312H37.4225L43.4975 48.75H40.5725L38.9975 45.075L40.16 45.8812H32.3413L33.5038 45.075L31.9475 48.75H29.0038ZM36.2225 38.625L33.8225 44.3437L33.3163 43.6125H39.185L38.6788 44.3437L36.26 38.625H36.2225Z" fill="white"/>
<path d="M45.3072 48.75V35.5312H48.2135V48.75H45.3072Z" fill="white"/>
</g>
<rect x="26.375" y="29.375" width="25.625" height="25.375" rx="1.25" stroke="#00CBBB" stroke-width="1.25"/>
<defs>
<clipPath id="clip0_217_263">
<rect width="18.2033" height="17.2629" fill="white" transform="translate(30 1)"/>
</clipPath>
<clipPath id="clip1_217_263">
<rect x="25.75" y="28.75" width="26.875" height="26.625" rx="1.875" fill="white"/>
</clipPath>
</defs>
</svg>
