<svg width="47" height="50" viewBox="0 0 47 50" fill="none" xmlns="http://www.w3.org/2000/svg">
<g clip-path="url(#clip0_179_59)">
<path d="M25.8226 18.0137C26.1039 17.87 26.3707 17.6994 26.6184 17.5036C27.2128 17.0337 27.6964 16.4193 28.004 15.6871C28.0287 15.6284 28.052 15.5696 28.0739 15.5106C28.8293 13.4773 27.9837 11.2449 26.1227 10.123C27.2325 11.1942 27.7524 12.7387 27.4587 14.2567C27.4005 14.5576 27.2574 15.7752 26.362 16.4535C25.6014 17.1344 24.4684 17.374 23.4373 16.9786C22.0188 16.4347 21.3304 14.8953 21.8997 13.5401C21.9125 13.5095 21.9259 13.4792 21.9398 13.4493C21.7753 13.6581 21.6365 13.8909 21.5298 14.145C20.888 15.6728 21.6414 17.405 23.214 18.0536C23.2396 18.0642 23.2652 18.0744 23.2912 18.0843C23.7053 18.2431 24.1337 18.3125 24.553 18.3021C24.9955 18.2911 25.4278 18.1912 25.8226 18.0137Z" fill="#00CBBB" stroke="#00CBBB" stroke-width="0.188079" stroke-linecap="round" stroke-linejoin="round"/>
<path d="M20.7417 9.79618C20.4603 9.93988 20.1935 10.1105 19.9459 10.3063C19.3515 10.7763 18.8678 11.3906 18.5602 12.1228C18.5356 12.1815 18.5123 12.2403 18.4904 12.2993C17.735 14.3326 18.5806 16.5651 20.4415 17.6869C19.3317 16.6157 18.8119 15.0712 19.1056 13.5533C19.1638 13.2524 19.3069 12.0348 20.2023 11.3564C20.9629 10.6755 22.0959 10.4359 23.127 10.8313C24.5454 11.3752 25.2339 12.9146 24.6646 14.2699C24.6517 14.3005 24.6384 14.3307 24.6244 14.3606C24.789 14.1518 24.9278 13.919 25.0345 13.6649C25.6763 12.1371 24.9229 10.4049 23.3502 9.75629C23.3247 9.74576 23.299 9.73555 23.2731 9.72559C22.859 9.56679 22.4306 9.49743 22.0112 9.50785C21.5688 9.51884 21.1364 9.6187 20.7417 9.79618Z" fill="#00CBBB" stroke="#00CBBB" stroke-width="0.188079" stroke-linecap="round" stroke-linejoin="round"/>
</g>
<path d="M20.75 3.16504C22.4517 2.18257 24.5483 2.18257 26.25 3.16504L39.7354 10.9512C41.437 11.9336 42.4853 13.749 42.4854 15.7139V31.2861C42.4853 33.251 41.437 35.0664 39.7354 36.0488L26.25 43.835C24.5483 44.8174 22.4517 44.8174 20.75 43.835L7.26465 36.0488C5.56301 35.0664 4.51473 33.251 4.51465 31.2861V15.7139C4.51473 13.749 5.56301 11.9336 7.26465 10.9512L20.75 3.16504Z" stroke="#00CBBB"/>
<circle cx="23.5" cy="29.5" r="7.15" fill="white" stroke="#00CBBB" stroke-width="0.7"/>
<path d="M19.8577 31.8594C19.7801 31.938 19.7809 32.0646 19.8594 32.1423C19.938 32.2199 20.0646 32.2191 20.1423 32.1406L20 32L19.8577 31.8594ZM22.6928 29.2751L22.8295 29.1292L22.6874 28.996L22.5505 29.1345L22.6928 29.2751ZM24 30.5L23.8632 30.6459L24.0158 30.7889L24.1519 30.6302L24 30.5ZM27.1994 26.9847C27.1909 26.8745 27.0948 26.7921 26.9847 26.8006L25.19 26.9386C25.0798 26.9471 24.9974 27.0433 25.0059 27.1534C25.0144 27.2635 25.1105 27.3459 25.2206 27.3375L26.8159 27.2148L26.9386 28.81C26.9471 28.9202 27.0433 29.0026 27.1534 28.9941C27.2635 28.9856 27.3459 28.8895 27.3375 28.7794L27.1994 26.9847ZM20 32L20.1423 32.1406L22.835 29.4157L22.6928 29.2751L22.5505 29.1345L19.8577 31.8594L20 32ZM22.6928 29.2751L22.556 29.421L23.8632 30.6459L24 30.5L24.1368 30.3541L22.8295 29.1292L22.6928 29.2751ZM24 30.5L24.1519 30.6302L27.1519 27.1302L27 27L26.8481 26.8698L23.8481 30.3698L24 30.5Z" fill="#00CBBB"/>
<path d="M29 35L30 36" stroke="#00CBBB" stroke-width="0.7" stroke-linecap="square"/>
<rect x="31.0685" y="35.3534" width="6.5" height="2.5" rx="0.75" transform="rotate(43.3222 31.0685 35.3534)" fill="#F6F9FB"/>
<rect x="31.0685" y="35.3534" width="6.5" height="2.5" rx="0.75" transform="rotate(43.3222 31.0685 35.3534)" stroke="#00CBBB" stroke-width="0.5"/>
<defs>
<clipPath id="clip0_179_59">
<rect width="14.5627" height="13.8104" fill="white" transform="translate(16 7)"/>
</clipPath>
</defs>
</svg>
