<svg width="60" height="52" viewBox="0 0 60 52" fill="none" xmlns="http://www.w3.org/2000/svg">
<rect x="12.5" y="5.5" width="39" height="39" rx="5.5" stroke="#00CBBB"/>
<path d="M28.5 21L25.8858 23.2407C25.4202 23.6398 25.4202 24.3602 25.8858 24.7593L28.5 27M34 18L30 30M35.5 21L38.4333 23.2C38.9667 23.6 38.9667 24.4 38.4333 24.8L35.5 27" stroke="#00CBBB" stroke-linecap="round"/>
<g clip-path="url(#clip0_217_220)">
<rect width="14.5627" height="13.8104" transform="translate(43 35)" fill="white"/>
<path d="M52.8226 46.0137C53.1039 45.87 53.3707 45.6994 53.6184 45.5036C54.2128 45.0337 54.6964 44.4193 55.004 43.6871C55.0287 43.6284 55.052 43.5696 55.0739 43.5106C55.8293 41.4773 54.9837 39.2449 53.1227 38.123C54.2325 39.1942 54.7524 40.7387 54.4587 42.2567C54.4005 42.5576 54.2574 43.7752 53.362 44.4535C52.6014 45.1344 51.4684 45.374 50.4373 44.9786C49.0188 44.4347 48.3304 42.8953 48.8997 41.5401C48.9125 41.5095 48.9259 41.4792 48.9398 41.4493C48.7753 41.6581 48.6365 41.8909 48.5298 42.145C47.888 43.6728 48.6414 45.405 50.214 46.0536C50.2396 46.0642 50.2652 46.0744 50.2912 46.0843C50.7053 46.2431 51.1337 46.3125 51.553 46.3021C51.9955 46.2911 52.4278 46.1912 52.8226 46.0137Z" fill="#00CBBB" stroke="#00CBBB" stroke-width="0.188079" stroke-linecap="round" stroke-linejoin="round"/>
<path d="M47.7417 37.7962C47.4603 37.9399 47.1935 38.1105 46.9459 38.3063C46.3515 38.7763 45.8678 39.3906 45.5602 40.1228C45.5356 40.1815 45.5123 40.2403 45.4904 40.2993C44.735 42.3326 45.5806 44.5651 47.4415 45.6869C46.3317 44.6157 45.8119 43.0712 46.1056 41.5533C46.1638 41.2524 46.3069 40.0348 47.2023 39.3564C47.9629 38.6755 49.0959 38.4359 50.127 38.8313C51.5454 39.3752 52.2339 40.9146 51.6646 42.2699C51.6517 42.3005 51.6384 42.3307 51.6244 42.3606C51.789 42.1518 51.9278 41.919 52.0345 41.6649C52.6763 40.1371 51.9229 38.4049 50.3502 37.7563C50.3247 37.7458 50.299 37.7355 50.2731 37.7256C49.859 37.5668 49.4306 37.4974 49.0112 37.5079C48.5688 37.5188 48.1364 37.6187 47.7417 37.7962Z" fill="#00CBBB" stroke="#00CBBB" stroke-width="0.188079" stroke-linecap="round" stroke-linejoin="round"/>
</g>
<defs>
<clipPath id="clip0_217_220">
<rect width="14.5627" height="13.8104" fill="white" transform="translate(43 35)"/>
</clipPath>
</defs>
</svg>
