<svg width="47" height="50" viewBox="0 0 47 50" fill="none" xmlns="http://www.w3.org/2000/svg">
<g clip-path="url(#clip0_179_12)">
<path d="M25.8226 18.0137C26.1039 17.87 26.3707 17.6994 26.6184 17.5036C27.2128 17.0337 27.6964 16.4193 28.004 15.6871C28.0287 15.6284 28.052 15.5696 28.0739 15.5106C28.8293 13.4773 27.9837 11.2449 26.1227 10.123C27.2325 11.1942 27.7524 12.7387 27.4587 14.2567C27.4005 14.5576 27.2574 15.7752 26.362 16.4535C25.6014 17.1344 24.4684 17.374 23.4373 16.9786C22.0188 16.4347 21.3304 14.8953 21.8997 13.5401C21.9125 13.5095 21.9259 13.4792 21.9398 13.4493C21.7753 13.6581 21.6365 13.8909 21.5298 14.145C20.888 15.6728 21.6414 17.405 23.214 18.0536C23.2396 18.0642 23.2652 18.0744 23.2912 18.0843C23.7053 18.2431 24.1337 18.3125 24.553 18.3021C24.9955 18.2911 25.4278 18.1912 25.8226 18.0137Z" fill="#00CBBB" stroke="#00CBBB" stroke-width="0.188079" stroke-linecap="round" stroke-linejoin="round"/>
<path d="M20.7417 9.79618C20.4603 9.93988 20.1935 10.1105 19.9459 10.3063C19.3515 10.7763 18.8678 11.3906 18.5602 12.1228C18.5356 12.1815 18.5123 12.2403 18.4904 12.2993C17.735 14.3326 18.5806 16.5651 20.4415 17.6869C19.3317 16.6157 18.8119 15.0712 19.1056 13.5533C19.1638 13.2524 19.3069 12.0348 20.2023 11.3564C20.9629 10.6755 22.0959 10.4359 23.127 10.8313C24.5454 11.3752 25.2339 12.9146 24.6646 14.2699C24.6517 14.3005 24.6384 14.3307 24.6244 14.3606C24.789 14.1518 24.9278 13.919 25.0345 13.6649C25.6763 12.1371 24.9229 10.4049 23.3502 9.75629C23.3247 9.74576 23.299 9.73555 23.2731 9.72559C22.859 9.56679 22.4306 9.49743 22.0112 9.50785C21.5688 9.51884 21.1364 9.6187 20.7417 9.79618Z" fill="#00CBBB" stroke="#00CBBB" stroke-width="0.188079" stroke-linecap="round" stroke-linejoin="round"/>
</g>
<path d="M20.75 3.16504C22.4517 2.18257 24.5483 2.18257 26.25 3.16504L39.7354 10.9512C41.437 11.9336 42.4853 13.749 42.4854 15.7139V31.2861C42.4853 33.251 41.437 35.0664 39.7354 36.0488L26.25 43.835C24.5483 44.8174 22.4517 44.8174 20.75 43.835L7.26465 36.0488C5.56301 35.0664 4.51473 33.251 4.51465 31.2861V15.7139C4.51473 13.749 5.56301 11.9336 7.26465 10.9512L20.75 3.16504Z" stroke="#00CBBB"/>
<rect x="9.25" y="21.25" width="19.5" height="6.5" rx="0.75" stroke="#00CBBB" stroke-width="0.5"/>
<path d="M13 24.5C13 25.0523 12.5523 25.5 12 25.5C11.4477 25.5 11 25.0523 11 24.5C11 23.9477 11.4477 23.5 12 23.5C12.5523 23.5 13 23.9477 13 24.5Z" fill="#00CBBB"/>
<path d="M16 24.5C16 25.0523 15.5523 25.5 15 25.5C14.4477 25.5 14 25.0523 14 24.5C14 23.9477 14.4477 23.5 15 23.5C15.5523 23.5 16 23.9477 16 24.5Z" fill="#00CBBB"/>
<path d="M22.9795 24.75H26.0209" stroke="#00CBBB" stroke-width="0.7" stroke-linecap="round"/>
<rect x="9.25" y="29.25" width="19.5" height="6.5" rx="0.75" fill="#F6F9FB"/>
<rect x="9.25" y="29.25" width="19.5" height="6.5" rx="0.75" stroke="#00CBBB" stroke-width="0.5"/>
<path d="M13 32.5C13 33.0523 12.5523 33.5 12 33.5C11.4477 33.5 11 33.0523 11 32.5C11 31.9477 11.4477 31.5 12 31.5C12.5523 31.5 13 31.9477 13 32.5Z" fill="#00CBBB"/>
<path d="M16 32.5C16 33.0523 15.5523 33.5 15 33.5C14.4477 33.5 14 33.0523 14 32.5C14 31.9477 14.4477 31.5 15 31.5C15.5523 31.5 16 31.9477 16 32.5Z" fill="#00CBBB"/>
<path d="M22.9795 32.75H26.0209" stroke="#00CBBB" stroke-width="0.7" stroke-linecap="round"/>
<rect x="9.25" y="37.25" width="19.5" height="6.5" rx="0.75" fill="#F6F9FB"/>
<rect x="9.25" y="37.25" width="19.5" height="6.5" rx="0.75" stroke="#00CBBB" stroke-width="0.5"/>
<path d="M13 40.5C13 41.0523 12.5523 41.5 12 41.5C11.4477 41.5 11 41.0523 11 40.5C11 39.9477 11.4477 39.5 12 39.5C12.5523 39.5 13 39.9477 13 40.5Z" fill="#00CBBB"/>
<path d="M16 40.5C16 41.0523 15.5523 41.5 15 41.5C14.4477 41.5 14 41.0523 14 40.5C14 39.9477 14.4477 39.5 15 39.5C15.5523 39.5 16 39.9477 16 40.5Z" fill="#00CBBB"/>
<path d="M22.9795 40.75H26.0209" stroke="#00CBBB" stroke-width="0.7" stroke-linecap="round"/>
<circle cx="37.5" cy="26.5" r="1.35" fill="#F6F9FB" stroke="#00CBBB" stroke-width="0.3"/>
<path d="M30 32.5H33" stroke="#00CBBB" stroke-width="0.3" stroke-linecap="round"/>
<path d="M35.5 31.5L37 28" stroke="#00CBBB" stroke-width="0.3" stroke-linecap="square"/>
<path d="M34.9974 33.5022L36.9998 36.5002" stroke="#00CBBB" stroke-width="0.3" stroke-linecap="round"/>
<circle cx="37.5" cy="37.5" r="1.35" fill="#F6F9FB" stroke="#00CBBB" stroke-width="0.3"/>
<circle cx="34.5" cy="32.5" r="1.35" fill="#F6F9FB" stroke="#00CBBB" stroke-width="0.3"/>
<defs>
<clipPath id="clip0_179_12">
<rect width="14.5627" height="13.8104" fill="white" transform="translate(16 7)"/>
</clipPath>
</defs>
</svg>
