<svg width="42" height="42" viewBox="0 0 42 42" fill="none" xmlns="http://www.w3.org/2000/svg">
<rect x="0.5" y="1.5" width="39" height="39" rx="5.5" stroke="#00CBBB"/>
<rect x="11.5" y="12.5" width="16" height="16" rx="3.5" stroke="#00CBBB"/>
<g clip-path="url(#clip0_217_99)">
<path d="M21.8226 24.0137C22.1039 23.87 22.3707 23.6994 22.6184 23.5036C23.2128 23.0337 23.6964 22.4193 24.004 21.6871C24.0287 21.6284 24.052 21.5696 24.0739 21.5106C24.8293 19.4773 23.9837 17.2449 22.1227 16.123C23.2325 17.1942 23.7524 18.7387 23.4587 20.2567C23.4005 20.5576 23.2574 21.7752 22.362 22.4535C21.6014 23.1344 20.4684 23.374 19.4373 22.9786C18.0188 22.4347 17.3304 20.8953 17.8997 19.5401C17.9125 19.5095 17.9259 19.4792 17.9398 19.4493C17.7753 19.6581 17.6365 19.8909 17.5298 20.145C16.888 21.6728 17.6414 23.405 19.214 24.0536C19.2396 24.0642 19.2652 24.0744 19.2912 24.0843C19.7053 24.2431 20.1337 24.3125 20.553 24.3021C20.9955 24.2911 21.4278 24.1912 21.8226 24.0137Z" fill="#00CBBB" stroke="#00CBBB" stroke-width="0.188079" stroke-linecap="round" stroke-linejoin="round"/>
<path d="M16.7417 15.7962C16.4603 15.9399 16.1935 16.1105 15.9459 16.3063C15.3515 16.7763 14.8678 17.3906 14.5602 18.1228C14.5356 18.1815 14.5123 18.2403 14.4904 18.2993C13.735 20.3326 14.5806 22.5651 16.4415 23.6869C15.3317 22.6157 14.8119 21.0712 15.1056 19.5533C15.1638 19.2524 15.3069 18.0348 16.2023 17.3564C16.9629 16.6755 18.0959 16.4359 19.127 16.8313C20.5454 17.3752 21.2339 18.9146 20.6646 20.2699C20.6517 20.3005 20.6384 20.3307 20.6244 20.3606C20.789 20.1518 20.9278 19.919 21.0345 19.6649C21.6763 18.1371 20.9229 16.4049 19.3502 15.7563C19.3247 15.7458 19.299 15.7355 19.2731 15.7256C18.859 15.5668 18.4306 15.4974 18.0112 15.5079C17.5688 15.5188 17.1364 15.6187 16.7417 15.7962Z" fill="#00CBBB" stroke="#00CBBB" stroke-width="0.188079" stroke-linecap="round" stroke-linejoin="round"/>
</g>
<rect x="11.5" y="12.5" width="16" height="16" rx="3.5" stroke="#00CBBB"/>
<g clip-path="url(#clip1_217_99)">
<path d="M21.8226 24.0137C22.1039 23.87 22.3707 23.6994 22.6184 23.5036C23.2128 23.0337 23.6964 22.4193 24.004 21.6871C24.0287 21.6284 24.052 21.5696 24.0739 21.5106C24.8293 19.4773 23.9837 17.2449 22.1227 16.123C23.2325 17.1942 23.7524 18.7387 23.4587 20.2567C23.4005 20.5576 23.2574 21.7752 22.362 22.4535C21.6014 23.1344 20.4684 23.374 19.4373 22.9786C18.0188 22.4347 17.3304 20.8953 17.8997 19.5401C17.9125 19.5095 17.9259 19.4792 17.9398 19.4493C17.7753 19.6581 17.6365 19.8909 17.5298 20.145C16.888 21.6728 17.6414 23.405 19.214 24.0536C19.2396 24.0642 19.2652 24.0744 19.2912 24.0843C19.7053 24.2431 20.1337 24.3125 20.553 24.3021C20.9955 24.2911 21.4278 24.1912 21.8226 24.0137Z" fill="#00CBBB" stroke="#00CBBB" stroke-width="0.188079" stroke-linecap="round" stroke-linejoin="round"/>
<path d="M16.7417 15.7962C16.4603 15.9399 16.1935 16.1105 15.9459 16.3063C15.3515 16.7763 14.8678 17.3906 14.5602 18.1228C14.5356 18.1815 14.5123 18.2403 14.4904 18.2993C13.735 20.3326 14.5806 22.5651 16.4415 23.6869C15.3317 22.6157 14.8119 21.0712 15.1056 19.5533C15.1638 19.2524 15.3069 18.0348 16.2023 17.3564C16.9629 16.6755 18.0959 16.4359 19.127 16.8313C20.5454 17.3752 21.2339 18.9146 20.6646 20.2699C20.6517 20.3005 20.6384 20.3307 20.6244 20.3606C20.789 20.1518 20.9278 19.919 21.0345 19.6649C21.6763 18.1371 20.9229 16.4049 19.3502 15.7563C19.3247 15.7458 19.299 15.7355 19.2731 15.7256C18.859 15.5668 18.4306 15.4974 18.0112 15.5079C17.5688 15.5188 17.1364 15.6187 16.7417 15.7962Z" fill="#00CBBB" stroke="#00CBBB" stroke-width="0.188079" stroke-linecap="round" stroke-linejoin="round"/>
</g>
<path d="M16 10.5C16 10.2239 15.7761 10 15.5 10C15.2239 10 15 10.2239 15 10.5H15.5H16ZM15.5 12H16V10.5H15.5H15V12H15.5Z" fill="#00CBBB"/>
<path d="M19 12V12.5H20V12H19.5H19ZM20 10.5C20 10.2239 19.7761 10 19.5 10C19.2239 10 19 10.2239 19 10.5H19.5H20ZM19.5 12H20V10.5H19.5H19V12H19.5Z" fill="#00CBBB"/>
<path d="M23 11.5V12H24V11.5H23.5H23ZM24 10.5C24 10.2239 23.7761 10 23.5 10C23.2239 10 23 10.2239 23 10.5H23.5H24ZM23.5 11.5H24V10.5H23.5H23V11.5H23.5Z" fill="#00CBBB"/>
<path d="M28 16.5H29.5" stroke="#00CBBB" stroke-linecap="round"/>
<path d="M28 24H29.5" stroke="#00CBBB" stroke-linecap="round"/>
<path d="M28 20H29.5" stroke="#00CBBB" stroke-linecap="round"/>
<path d="M16 29.5V29H15V29.5H15.5H16ZM15 30.5C15 30.7761 15.2239 31 15.5 31C15.7761 31 16 30.7761 16 30.5H15.5H15ZM15.5 29.5H15V30.5H15.5H16V29.5H15.5Z" fill="#00CBBB"/>
<path d="M20 29.5V29H19V29.5H19.5H20ZM19 30.5C19 30.7761 19.2239 31 19.5 31C19.7761 31 20 30.7761 20 30.5H19.5H19ZM19.5 29.5H19V30.5H19.5H20V29.5H19.5Z" fill="#00CBBB"/>
<path d="M24 29.5V29H23V29.5H23.5H24ZM23 30.5C23 30.7761 23.2239 31 23.5 31C23.7761 31 24 30.7761 24 30.5H23.5H23ZM23.5 29.5H23V30.5H23.5H24V29.5H23.5Z" fill="#00CBBB"/>
<path d="M9.5 16C9.22386 16 9 16.2239 9 16.5C9 16.7761 9.22386 17 9.5 17V16.5V16ZM11 16.5V16H9.5V16.5V17H11V16.5Z" fill="#00CBBB"/>
<path d="M10.5 21H11V20H10.5V20.5V21ZM9.5 20C9.22386 20 9 20.2239 9 20.5C9 20.7761 9.22386 21 9.5 21V20.5V20ZM10.5 20.5V20H9.5V20.5V21H10.5V20.5Z" fill="#00CBBB"/>
<path d="M10.5 25H11V24H10.5V24.5V25ZM9.5 24C9.22386 24 9 24.2239 9 24.5C9 24.7761 9.22386 25 9.5 25V24.5V24ZM10.5 24.5V24H9.5V24.5V25H10.5V24.5Z" fill="#00CBBB"/>
<defs>
<clipPath id="clip0_217_99">
<rect width="14.5627" height="13.8104" fill="white" transform="translate(12 13)"/>
</clipPath>
<clipPath id="clip1_217_99">
<rect width="14.5627" height="13.8104" fill="white" transform="translate(12 13)"/>
</clipPath>
</defs>
</svg>
