<svg width="60" height="52" viewBox="0 0 60 52" fill="none" xmlns="http://www.w3.org/2000/svg">
<rect x="12.5" y="5.5" width="39" height="39" rx="5.5" stroke="#00CBBB"/>
<path d="M30.4659 28.0909V27.9886C30.4773 26.9034 30.5909 26.0398 30.8068 25.3977C31.0227 24.7557 31.3295 24.2358 31.7273 23.8381C32.125 23.4403 32.6023 23.0739 33.1591 22.7386C33.4943 22.5341 33.7955 22.2926 34.0625 22.0142C34.3295 21.7301 34.5398 21.4034 34.6932 21.0341C34.8523 20.6648 34.9318 20.2557 34.9318 19.8068C34.9318 19.25 34.8011 18.767 34.5398 18.358C34.2784 17.9489 33.929 17.6335 33.4915 17.4119C33.054 17.1903 32.5682 17.0795 32.0341 17.0795C31.5682 17.0795 31.1193 17.1761 30.6875 17.3693C30.2557 17.5625 29.8949 17.8665 29.6051 18.2812C29.3153 18.696 29.1477 19.2386 29.1023 19.9091H26.9545C27 18.9432 27.25 18.1165 27.7045 17.429C28.1648 16.7415 28.7699 16.2159 29.5199 15.8523C30.2756 15.4886 31.1136 15.3068 32.0341 15.3068C33.0341 15.3068 33.9034 15.5057 34.642 15.9034C35.3864 16.3011 35.9602 16.8466 36.3636 17.5398C36.7727 18.233 36.9773 19.0227 36.9773 19.9091C36.9773 20.5341 36.8807 21.0994 36.6875 21.6051C36.5 22.1108 36.2273 22.5625 35.8693 22.9602C35.517 23.358 35.0909 23.7102 34.5909 24.017C34.0909 24.3295 33.6903 24.6591 33.3892 25.0057C33.0881 25.3466 32.8693 25.7528 32.733 26.2244C32.5966 26.696 32.5227 27.2841 32.5114 27.9886V28.0909H30.4659ZM31.5568 33.1364C31.1364 33.1364 30.7756 32.9858 30.4744 32.6847C30.1733 32.3835 30.0227 32.0227 30.0227 31.6023C30.0227 31.1818 30.1733 30.821 30.4744 30.5199C30.7756 30.2187 31.1364 30.0682 31.5568 30.0682C31.9773 30.0682 32.3381 30.2187 32.6392 30.5199C32.9403 30.821 33.0909 31.1818 33.0909 31.6023C33.0909 31.8807 33.0199 32.1364 32.8778 32.3693C32.7415 32.6023 32.5568 32.7898 32.3239 32.9318C32.0966 33.0682 31.8409 33.1364 31.5568 33.1364Z" fill="#00CBBB"/>
<g clip-path="url(#clip0_234_12)">
<rect width="14.5627" height="13.8104" transform="translate(43 35)" fill="white"/>
<path d="M52.8226 46.0137C53.1039 45.87 53.3707 45.6994 53.6184 45.5036C54.2128 45.0337 54.6964 44.4193 55.004 43.6871C55.0287 43.6284 55.052 43.5696 55.0739 43.5106C55.8293 41.4773 54.9837 39.2449 53.1227 38.123C54.2325 39.1942 54.7524 40.7387 54.4587 42.2567C54.4005 42.5576 54.2574 43.7752 53.362 44.4535C52.6014 45.1344 51.4684 45.374 50.4373 44.9786C49.0188 44.4347 48.3304 42.8953 48.8997 41.5401C48.9125 41.5095 48.9259 41.4792 48.9398 41.4493C48.7753 41.6581 48.6365 41.8909 48.5298 42.145C47.888 43.6728 48.6414 45.405 50.214 46.0536C50.2396 46.0642 50.2652 46.0744 50.2912 46.0843C50.7053 46.2431 51.1337 46.3125 51.553 46.3021C51.9955 46.2911 52.4278 46.1912 52.8226 46.0137Z" fill="#00CBBB" stroke="#00CBBB" stroke-width="0.188079" stroke-linecap="round" stroke-linejoin="round"/>
<path d="M47.7417 37.7962C47.4603 37.9399 47.1935 38.1105 46.9459 38.3063C46.3515 38.7763 45.8678 39.3906 45.5602 40.1228C45.5356 40.1815 45.5123 40.2403 45.4904 40.2993C44.735 42.3326 45.5806 44.5651 47.4415 45.6869C46.3317 44.6157 45.8119 43.0712 46.1056 41.5533C46.1638 41.2524 46.3069 40.0348 47.2023 39.3564C47.9629 38.6755 49.0959 38.4359 50.127 38.8313C51.5454 39.3752 52.2339 40.9146 51.6646 42.2699C51.6517 42.3005 51.6384 42.3307 51.6244 42.3606C51.789 42.1518 51.9278 41.919 52.0345 41.6649C52.6763 40.1371 51.9229 38.4049 50.3502 37.7563C50.3247 37.7458 50.299 37.7355 50.2731 37.7256C49.859 37.5668 49.4306 37.4974 49.0112 37.5079C48.5688 37.5188 48.1364 37.6187 47.7417 37.7962Z" fill="#00CBBB" stroke="#00CBBB" stroke-width="0.188079" stroke-linecap="round" stroke-linejoin="round"/>
</g>
<defs>
<clipPath id="clip0_234_12">
<rect width="14.5627" height="13.8104" fill="white" transform="translate(43 35)"/>
</clipPath>
</defs>
</svg>
