<svg width="42" height="42" viewBox="0 0 42 42" fill="none" xmlns="http://www.w3.org/2000/svg">
<rect x="0.5" y="1.5" width="39" height="39" rx="5.5" stroke="#00CBBB"/>
<path d="M5 31.5H24" stroke="#00CBBB"/>
<path d="M5 35H19.5" stroke="#00CBBB"/>
<g clip-path="url(#clip0_173_71)">
<path d="M24.6437 25.028C25.2064 24.7406 25.74 24.3993 26.2353 24.0077C27.4241 23.0678 28.3914 21.8391 29.0066 20.3746C29.0559 20.2574 29.1024 20.1397 29.1463 20.0216C30.657 15.955 28.9659 11.4902 25.244 9.24658C27.4636 11.3888 28.5033 14.4779 27.9159 17.5138C27.7995 18.1156 27.5133 20.5508 25.7225 21.9075C24.2013 23.2693 21.9352 23.7485 19.873 22.9577C17.0362 21.87 15.6593 18.791 16.7979 16.0806C16.8236 16.0194 16.8503 15.9589 16.8782 15.8992C16.5491 16.3168 16.2715 16.7823 16.0581 17.2906C14.7745 20.3461 16.2813 23.8105 19.4266 25.1077C19.4776 25.1288 19.529 25.1492 19.5809 25.1691C20.4091 25.4867 21.2659 25.6255 22.1046 25.6046C22.9895 25.5826 23.8542 25.3829 24.6437 25.028Z" fill="#00CBBB" stroke="#00CBBB" stroke-width="0.376157" stroke-linecap="round" stroke-linejoin="round"/>
<path d="M14.4819 8.59333C13.9192 8.88073 13.3856 9.22204 12.8903 9.61355C11.7015 10.5535 10.7342 11.7822 10.119 13.2466C10.0697 13.3639 10.0232 13.4816 9.97931 13.5997C8.46856 17.6663 10.1597 22.1311 13.8816 24.3747C11.662 22.2325 10.6223 19.1434 11.2097 16.1075C11.3261 15.5057 11.6123 13.0705 13.4031 11.7138C14.9243 10.352 17.1904 9.87282 19.2526 10.6635C22.0894 11.7513 23.4663 14.8303 22.3277 17.5407C22.302 17.6019 22.2753 17.6624 22.2474 17.7221C22.5765 17.3045 22.8541 16.839 23.0675 16.3307C24.3511 13.2752 22.8443 9.8108 19.699 8.51355C19.648 8.4925 19.5966 8.47207 19.5447 8.45215C18.7165 8.13456 17.8597 7.99584 17.021 8.01669C16.1362 8.03866 15.2714 8.23837 14.4819 8.59333Z" fill="#00CBBB" stroke="#00CBBB" stroke-width="0.376157" stroke-linecap="round" stroke-linejoin="round"/>
</g>
<circle cx="35.5" cy="35.5" r="6" fill="#F6F9FB" stroke="#00CBBB"/>
<path d="M36.603 39L35.7769 38.9736C35.6538 38.9736 35.5615 38.9751 35.5 38.978L35.3066 38.9868C35.1602 38.9956 35.0312 39 34.9199 39C34.6357 39 34.4937 38.8916 34.4937 38.6748C34.4937 38.5693 34.5376 38.4873 34.6255 38.4287C34.7163 38.3701 34.8364 38.3408 34.9858 38.3408H35.3286V35.4756C35.3286 35.2998 35.2905 35.2119 35.2144 35.2119C35.1792 35.2119 35.1235 35.2222 35.0474 35.2427C34.9741 35.2632 34.8906 35.2734 34.7969 35.2734C34.7061 35.2734 34.624 35.2427 34.5508 35.1812C34.4775 35.1196 34.4409 35.0361 34.4409 34.9307C34.4409 34.708 34.5991 34.5806 34.9155 34.5483C35.1118 34.5308 35.2715 34.5044 35.3945 34.4692C35.5205 34.4341 35.6421 34.4165 35.7593 34.4165C35.979 34.4165 36.0889 34.5571 36.0889 34.8384V38.3408H36.436C36.8052 38.3408 36.9897 38.4565 36.9897 38.688C36.9897 38.77 36.9531 38.8433 36.8799 38.9077C36.8096 38.9692 36.7173 39 36.603 39ZM36.2515 32.9092C36.2515 33.1934 36.1313 33.3779 35.8911 33.4629C35.8237 33.4863 35.7285 33.498 35.6055 33.498C35.4824 33.498 35.3696 33.4497 35.2671 33.353C35.1646 33.2563 35.1133 33.1304 35.1133 32.9751C35.1133 32.8198 35.166 32.6909 35.2715 32.5884C35.3799 32.4858 35.5205 32.4346 35.6934 32.4346C35.8691 32.4346 36.0054 32.4814 36.1021 32.5752C36.2017 32.666 36.2515 32.7773 36.2515 32.9092Z" fill="#00CBBB"/>
<defs>
<clipPath id="clip0_173_71">
<rect width="29.1253" height="27.6207" fill="white" transform="translate(5 3)"/>
</clipPath>
</defs>
</svg>
