<svg width="100" height="26" viewBox="0 0 100 26" fill="none" xmlns="http://www.w3.org/2000/svg">
<g clip-path="url(#clip0_227_20)">
<path d="M21.8061 24.3417C22.5996 23.9364 23.3519 23.4551 24.0503 22.9031C25.7266 21.5778 27.0904 19.8453 27.9578 17.7805C28.0274 17.6151 28.093 17.4492 28.1549 17.2827C30.285 11.5488 27.9005 5.2534 22.6527 2.08984C25.7822 5.11038 27.2482 9.46596 26.42 13.7466C26.2559 14.5952 25.8523 18.0288 23.3273 19.9418C21.1824 21.8619 17.9872 22.5376 15.0795 21.4226C11.0795 19.8889 9.13815 15.5476 10.7436 11.7258C10.7797 11.6396 10.8176 11.5543 10.8568 11.47C10.3928 12.0588 10.0013 12.7152 9.70039 13.4319C7.89056 17.7402 10.0152 22.625 14.4501 24.4541C14.522 24.4838 14.5944 24.5126 14.6677 24.5407C15.8354 24.9885 17.0434 25.1841 18.2261 25.1547C19.4736 25.1237 20.6929 24.8421 21.8061 24.3417Z" fill="#00CBBB" stroke="#00CBBB" stroke-width="0.530383" stroke-linecap="round" stroke-linejoin="round"/>
<path d="M7.47829 1.1675C6.68481 1.57274 5.9324 2.05398 5.2341 2.60602C3.55787 3.93134 2.19398 5.66388 1.32658 7.72874C1.25703 7.89406 1.19141 8.05991 1.12958 8.22647C-1.00059 13.9603 1.38386 20.2557 6.63176 23.4193C3.50217 20.3988 2.03624 16.0432 2.86438 11.7625C3.0285 10.9139 3.43202 7.48031 5.95716 5.56729C8.10195 3.64722 11.2972 2.97157 14.2049 4.08653C18.2049 5.62026 20.1462 9.96157 18.5408 13.7833C18.5046 13.8696 18.4669 13.9549 18.4277 14.0391C18.8916 13.4504 19.2831 12.7939 19.584 12.0773C21.3939 7.76892 19.2693 2.88415 14.8344 1.05501C14.7624 1.02533 14.6899 0.996523 14.6168 0.968438C13.449 0.520638 12.2409 0.325045 11.0584 0.354434C9.8107 0.385419 8.59149 0.667005 7.47829 1.1675Z" fill="#00CBBB" stroke="#00CBBB" stroke-width="0.530383" stroke-linecap="round" stroke-linejoin="round"/>
<path d="M45.8156 20.4441H43.518L36.605 9.98386V20.4441H34.3074V6.41647H36.605L43.518 16.8566V6.41647H45.8156V20.4441ZM59.0109 14.6194C59.0109 15.0359 58.984 15.4121 58.9302 15.748H50.4452C50.5124 16.6348 50.8416 17.347 51.4327 17.8845C52.024 18.4218 52.7495 18.6906 53.6094 18.6906C54.8456 18.6906 55.719 18.1733 56.2296 17.1387H58.7085C58.3727 18.1599 57.7613 18.9997 56.8745 19.6581C56.0011 20.303 54.9128 20.6254 53.6094 20.6254C52.548 20.6254 51.594 20.3903 50.7475 19.9201C49.9144 19.4363 49.256 18.7645 48.7723 17.9046C48.3021 17.0312 48.067 16.0235 48.067 14.8814C48.067 13.7393 48.2954 12.7383 48.7522 11.8784C49.2225 11.005 49.8742 10.3332 50.7072 9.86296C51.5537 9.39263 52.5211 9.15751 53.6094 9.15751C54.6575 9.15751 55.5913 9.38593 56.4109 9.84278C57.2306 10.2996 57.8688 10.9445 58.3256 11.7776C58.7825 12.5972 59.0109 13.5445 59.0109 14.6194ZM56.6125 13.8938C56.5991 13.0474 56.2967 12.3688 55.7055 11.8582C55.1143 11.3476 54.382 11.0923 53.5087 11.0923C52.7159 11.0923 52.0374 11.3476 51.4731 11.8582C50.9087 12.3554 50.5728 13.0339 50.4654 13.8938H56.6125ZM65.9276 11.2133H63.8719V20.4441H61.5541V11.2133H60.2441V9.33888H61.5541V8.55289C61.5541 7.27639 61.89 6.34932 62.5619 5.77157C63.2471 5.18034 64.3153 4.88477 65.7665 4.88477V6.79946C65.0677 6.79946 64.5773 6.93376 64.2951 7.20255C64.013 7.45784 63.8719 7.9079 63.8719 8.55289V9.33888H65.9276V11.2133ZM67.1981 14.8411C67.1981 13.7258 67.4265 12.7383 67.8833 11.8784C68.3536 11.0185 68.9851 10.3534 69.7778 9.88305C70.584 9.39933 71.4708 9.15751 72.4382 9.15751C73.3116 9.15751 74.0708 9.33218 74.7157 9.68151C75.374 10.0174 75.898 10.4407 76.2877 10.9513V9.33888H78.6055V20.4441H76.2877V18.7914C75.898 19.3154 75.3674 19.7521 74.6955 20.1014C74.0237 20.4508 73.2578 20.6254 72.3979 20.6254C71.4439 20.6254 70.5705 20.3836 69.7778 19.8999C68.9851 19.4028 68.3536 18.7175 67.8833 17.8441C67.4265 16.9573 67.1981 15.9563 67.1981 14.8411ZM76.2877 14.8814C76.2877 14.1155 76.1265 13.4504 75.804 12.8861C75.495 12.3217 75.0852 11.8918 74.5746 11.5962C74.064 11.3006 73.5131 11.1528 72.9219 11.1528C72.3307 11.1528 71.7799 11.3006 71.2693 11.5962C70.7587 11.8784 70.3421 12.3016 70.0197 12.8659C69.7106 13.4169 69.5561 14.0753 69.5561 14.8411C69.5561 15.607 69.7106 16.2788 70.0197 16.8566C70.3421 17.4343 70.7587 17.8777 71.2693 18.1867C71.7933 18.4823 72.3441 18.6302 72.9219 18.6302C73.5131 18.6302 74.064 18.4823 74.5746 18.1867C75.0852 17.8912 75.495 17.4612 75.804 16.8968C76.1265 16.3191 76.2877 15.6472 76.2877 14.8814ZM83.9207 10.9513C84.2564 10.3869 84.7006 9.95029 85.2514 9.64123C85.8154 9.31878 86.4807 9.15751 87.2465 9.15751V11.5357H86.6623C85.7616 11.5357 85.0769 11.7642 84.6063 12.221C84.1489 12.6778 83.9207 13.4705 83.9207 14.5992V20.4441H81.6234V9.33888H83.9207V10.9513ZM88.5922 14.8411C88.5922 13.7258 88.8213 12.7383 89.2778 11.8784C89.7484 11.0185 90.3794 10.3534 91.1725 9.88305C91.9789 9.39933 92.8654 9.15751 93.833 9.15751C94.7063 9.15751 95.4651 9.33218 96.1102 9.68151C96.7685 10.0174 97.2928 10.4407 97.6823 10.9513V9.33888H100V20.4441H97.6823V18.7914C97.2928 19.3154 96.7623 19.7521 96.0899 20.1014C95.4184 20.4508 94.6526 20.6254 93.7925 20.6254C92.8381 20.6254 91.9648 20.3836 91.1725 19.8999C90.3794 19.4028 89.7484 18.7175 89.2778 17.8441C88.8213 16.9573 88.5922 15.9563 88.5922 14.8411ZM97.6823 14.8814C97.6823 14.1155 97.521 13.4504 97.1985 12.8861C96.8892 12.3217 96.4794 11.8918 95.9692 11.5962C95.4589 11.3006 94.9072 11.1528 94.3168 11.1528C93.7255 11.1528 93.1747 11.3006 92.6636 11.5962C92.1533 11.8784 91.7365 12.3016 91.414 12.8659C91.1055 13.4169 90.9504 14.0753 90.9504 14.8411C90.9504 15.607 91.1055 16.2788 91.414 16.8566C91.7365 17.4343 92.1533 17.8777 92.6636 18.1867C93.1879 18.4823 93.7387 18.6302 94.3168 18.6302C94.9072 18.6302 95.4589 18.4823 95.9692 18.1867C96.4794 17.8912 96.8892 17.4612 97.1985 16.8968C97.521 16.3191 97.6823 15.6472 97.6823 14.8814Z" fill="#00CBBB"/>
</g>
<defs>
<clipPath id="clip0_227_20">
<rect width="100" height="25.511" fill="white"/>
</clipPath>
</defs>
</svg>
