<svg width="1263" height="442" viewBox="0 0 1263 442" fill="none" xmlns="http://www.w3.org/2000/svg">
<g clip-path="url(#clip0_44_19)">
<path d="M314.295 352.444C323.299 347.845 331.836 342.384 339.76 336.12C358.782 321.081 374.258 301.421 384.101 277.991C384.891 276.114 385.635 274.232 386.337 272.342C410.509 207.277 383.451 135.84 323.901 99.9415C359.413 134.217 376.049 183.642 366.651 232.217C364.789 241.846 360.209 280.809 331.556 302.517C307.217 324.305 270.96 331.972 237.965 319.32C192.575 301.916 170.545 252.653 188.763 209.286C189.173 208.307 189.602 207.339 190.047 206.383C184.782 213.064 180.34 220.513 176.925 228.645C156.388 277.534 180.497 332.964 230.822 353.72C231.638 354.057 232.46 354.384 233.291 354.703C246.542 359.784 260.25 362.003 273.67 361.67C287.827 361.318 301.663 358.123 314.295 352.444Z" fill="#00CBBB" stroke="#00CBBB" stroke-width="6.01852" stroke-linecap="round" stroke-linejoin="round"/>
<path d="M151.711 89.4874C142.707 94.0858 134.169 99.5467 126.245 105.811C107.224 120.85 91.7473 140.51 81.9045 163.941C81.1152 165.817 80.3706 167.699 79.669 169.589C55.4969 234.654 82.5545 306.091 142.105 341.99C106.592 307.714 89.9573 258.289 99.3547 209.714C101.217 200.085 105.796 161.122 134.45 139.414C158.788 117.626 195.046 109.959 228.041 122.611C273.431 140.015 295.46 189.278 277.243 232.645C276.832 233.624 276.404 234.592 275.959 235.548C281.224 228.867 285.666 221.418 289.081 213.286C309.618 164.397 285.509 108.967 235.184 88.2109C234.367 87.8741 233.545 87.5472 232.715 87.2285C219.464 82.1471 205.755 79.9276 192.336 80.2611C178.178 80.6127 164.343 83.808 151.711 89.4874Z" fill="#00CBBB" stroke="#00CBBB" stroke-width="6.01852" stroke-linecap="round" stroke-linejoin="round"/>
</g>
<path d="M586.733 308.746H560.661L482.215 190.049V308.746H456.143V149.568H482.215L560.661 268.037V149.568H586.733V308.746ZM736.466 242.651C736.466 247.377 736.161 251.646 735.551 255.458H639.267C640.029 265.521 643.765 273.602 650.473 279.701C657.182 285.799 665.415 288.849 675.173 288.849C689.2 288.849 699.111 282.979 704.905 271.239H733.035C729.224 282.826 722.286 292.356 712.223 299.827C702.313 307.145 689.963 310.804 675.173 310.804C663.128 310.804 652.303 308.136 642.697 302.8C633.244 297.311 625.773 289.687 620.284 279.929C614.948 270.019 612.28 258.584 612.28 245.624C612.28 232.664 614.872 221.305 620.056 211.547C625.392 201.636 632.787 194.013 642.24 188.677C651.846 183.34 662.823 180.672 675.173 180.672C687.066 180.672 697.662 183.264 706.963 188.448C716.264 193.632 723.506 200.95 728.69 210.403C733.874 219.704 736.466 230.453 736.466 242.651ZM709.25 234.417C709.098 224.812 705.667 217.112 698.958 211.318C692.25 205.524 683.94 202.627 674.03 202.627C665.034 202.627 657.334 205.524 650.931 211.318C644.527 216.96 640.715 224.659 639.496 234.417H709.25ZM814.954 204H791.626V308.746H765.325V204H750.46V182.73H765.325V173.811C765.325 159.326 769.137 148.806 776.761 142.25C784.537 135.541 796.658 132.187 813.125 132.187V153.914C805.196 153.914 799.631 155.438 796.429 158.488C793.227 161.385 791.626 166.492 791.626 173.811V182.73H814.954V204ZM829.37 245.166C829.37 232.511 831.962 221.305 837.146 211.547C842.482 201.789 849.648 194.242 858.644 188.905C867.792 183.416 877.855 180.672 888.833 180.672C898.743 180.672 907.358 182.654 914.676 186.618C922.147 190.43 928.093 195.233 932.515 201.027V182.73H958.816V308.746H932.515V289.992C928.093 295.939 922.071 300.894 914.447 304.858C906.824 308.822 898.133 310.804 888.375 310.804C877.55 310.804 867.639 308.06 858.644 302.571C849.648 296.93 842.482 289.154 837.146 279.243C831.962 269.18 829.37 257.821 829.37 245.166ZM932.515 245.624C932.515 236.933 930.685 229.386 927.026 222.982C923.519 216.578 918.869 211.699 913.075 208.345C907.281 204.991 901.03 203.314 894.321 203.314C887.613 203.314 881.362 204.991 875.568 208.345C869.774 211.547 865.047 216.35 861.388 222.753C857.881 229.005 856.128 236.476 856.128 245.166C856.128 253.857 857.881 261.481 861.388 268.037C865.047 274.593 869.774 279.624 875.568 283.131C881.514 286.485 887.765 288.163 894.321 288.163C901.03 288.163 907.281 286.485 913.075 283.131C918.869 279.777 923.519 274.898 927.026 268.494C930.685 261.938 932.515 254.314 932.515 245.624ZM1019.13 201.027C1022.94 194.623 1027.98 189.668 1034.23 186.161C1040.63 182.502 1048.18 180.672 1056.87 180.672V207.659H1050.24C1040.02 207.659 1032.25 210.251 1026.91 215.435C1021.72 220.619 1019.13 229.614 1019.13 242.422V308.746H993.061V182.73H1019.13V201.027ZM1072.14 245.166C1072.14 232.511 1074.74 221.305 1079.92 211.547C1085.26 201.789 1092.42 194.242 1101.42 188.905C1110.57 183.416 1120.63 180.672 1131.61 180.672C1141.52 180.672 1150.13 182.654 1157.45 186.618C1164.92 190.43 1170.87 195.233 1175.29 201.027V182.73H1201.59V308.746H1175.29V289.992C1170.87 295.939 1164.85 300.894 1157.22 304.858C1149.6 308.822 1140.91 310.804 1131.15 310.804C1120.32 310.804 1110.41 308.06 1101.42 302.571C1092.42 296.93 1085.26 289.154 1079.92 279.243C1074.74 269.18 1072.14 257.821 1072.14 245.166ZM1175.29 245.624C1175.29 236.933 1173.46 229.386 1169.8 222.982C1166.29 216.578 1161.64 211.699 1155.85 208.345C1150.06 204.991 1143.8 203.314 1137.1 203.314C1130.39 203.314 1124.14 204.991 1118.34 208.345C1112.55 211.547 1107.82 216.35 1104.16 222.753C1100.66 229.005 1098.9 236.476 1098.9 245.166C1098.9 253.857 1100.66 261.481 1104.16 268.037C1107.82 274.593 1112.55 279.624 1118.34 283.131C1124.29 286.485 1130.54 288.163 1137.1 288.163C1143.8 288.163 1150.06 286.485 1155.85 283.131C1161.64 279.777 1166.29 274.898 1169.8 268.494C1173.46 261.938 1175.29 254.314 1175.29 245.624Z" fill="#00CBBB"/>
<defs>
<clipPath id="clip0_44_19">
<rect width="466.005" height="441.931" fill="white"/>
</clipPath>
</defs>
</svg>
