<svg width="45" height="45" viewBox="0 0 45 45" fill="none" xmlns="http://www.w3.org/2000/svg">
<g clip-path="url(#clip0_173_74)">
<path d="M19.75 2.16504C21.4517 1.18257 23.5483 1.18257 25.25 2.16504L38.7354 9.95117C40.437 10.9336 41.4853 12.749 41.4854 14.7139V30.2861C41.4853 32.251 40.437 34.0664 38.7354 35.0488L25.25 42.835C23.5483 43.8174 21.4517 43.8174 19.75 42.835L6.26465 35.0488C4.56301 34.0664 3.51473 32.251 3.51465 30.2861V14.7139C3.51473 12.749 4.56301 10.9336 6.26465 9.95117L19.75 2.16504Z" stroke="#00CBBB"/>
<g clip-path="url(#clip1_173_74)">
<path d="M24.8226 16.0137C25.1039 15.87 25.3707 15.6994 25.6184 15.5036C26.2128 15.0337 26.6964 14.4193 27.004 13.6871C27.0287 13.6284 27.052 13.5696 27.0739 13.5106C27.8293 11.4773 26.9837 9.24486 25.1227 8.12305C26.2325 9.19417 26.7524 10.7387 26.4587 12.2567C26.4005 12.5576 26.2574 13.7752 25.362 14.4535C24.6014 15.1344 23.4684 15.374 22.4373 14.9786C21.0188 14.4347 20.3304 12.8953 20.8997 11.5401C20.9125 11.5095 20.9259 11.4792 20.9398 11.4493C20.7753 11.6581 20.6365 11.8909 20.5298 12.145C19.888 13.6728 20.6414 15.405 22.214 16.0536C22.2396 16.0642 22.2652 16.0744 22.2912 16.0843C22.7053 16.2431 23.1337 16.3125 23.553 16.3021C23.9955 16.2911 24.4278 16.1912 24.8226 16.0137Z" fill="#00CBBB" stroke="#00CBBB" stroke-width="0.188079" stroke-linecap="round" stroke-linejoin="round"/>
<path d="M19.7417 7.79618C19.4603 7.93988 19.1935 8.11053 18.9459 8.30629C18.3515 8.77625 17.8678 9.39063 17.5602 10.1228C17.5356 10.1815 17.5123 10.2403 17.4904 10.2993C16.735 12.3326 17.5806 14.5651 19.4415 15.6869C18.3317 14.6157 17.8119 13.0712 18.1056 11.5533C18.1638 11.2524 18.3069 10.0348 19.2023 9.35639C19.9629 8.67552 21.0959 8.43592 22.127 8.83129C23.5454 9.37518 24.2339 10.9146 23.6646 12.2699C23.6517 12.3005 23.6384 12.3307 23.6244 12.3606C23.789 12.1518 23.9278 11.919 24.0345 11.6649C24.6763 10.1371 23.9229 8.40491 22.3502 7.75629C22.3247 7.74576 22.299 7.73555 22.2731 7.72559C21.859 7.56679 21.4306 7.49743 21.0112 7.50785C20.5688 7.51884 20.1364 7.6187 19.7417 7.79618Z" fill="#00CBBB" stroke="#00CBBB" stroke-width="0.188079" stroke-linecap="round" stroke-linejoin="round"/>
</g>
<circle cx="22" cy="24.5" r="3.25" stroke="#00CBBB" stroke-width="0.5"/>
<path d="M16 35C16 35 17 29 22 29C27 29 28 35 28 35" stroke="#00CBBB" stroke-width="0.5"/>
<circle cx="34" cy="22.375" r="2.375" stroke="#00CBBB" stroke-width="0.5"/>
<path d="M29.5 30.25C29.5 30.25 30.25 25.75 34 25.75C37.75 25.75 38.5 30.25 38.5 30.25" stroke="#00CBBB" stroke-width="0.5"/>
<circle cx="10.25" cy="22.375" r="2.375" stroke="#00CBBB" stroke-width="0.5"/>
<path d="M5.75 30.25C5.75 30.25 6.5 25.75 10.25 25.75C14 25.75 14.75 30.25 14.75 30.25" stroke="#00CBBB" stroke-width="0.5"/>
</g>
<defs>
<clipPath id="clip0_173_74">
<rect width="45" height="45" fill="white"/>
</clipPath>
<clipPath id="clip1_173_74">
<rect width="14.5627" height="13.8104" fill="white" transform="translate(15 5)"/>
</clipPath>
</defs>
</svg>
