<svg width="2966" height="1283" viewBox="0 0 2966 1283" fill="none" xmlns="http://www.w3.org/2000/svg">
<rect x="104.5" y="112.5" width="2810" height="1052" rx="113.5" fill="#0B1920"/>
<rect x="104.5" y="112.5" width="2810" height="1052" rx="113.5" stroke="black"/>
<g filter="url(#filter0_d_84_15)">
<path fill-rule="evenodd" clip-rule="evenodd" d="M1711.97 254.409C1704.23 228.276 1681.7 207.609 1654.77 201.876C1626.63 196.009 1596.77 204.142 1577.83 222.942C1563.17 237.342 1556.77 253.743 1556.77 276.543C1556.77 299.209 1563.57 316.143 1578.77 331.476C1595.7 348.409 1615.83 355.743 1641.57 354.143C1675.97 352.143 1703.83 329.876 1712.1 297.876C1714.77 287.209 1714.77 263.876 1711.97 254.409ZM781.3 334.543C721.833 276.943 648.633 245.343 558.767 238.676C486.1 233.209 413.033 248.942 354.1 282.809C303.833 311.742 268.5 344.676 236.5 392.409C208.767 433.876 190.233 481.743 182.5 531.876C179.167 553.609 179.167 611.476 182.5 633.209C192.9 700.276 216.1 755.476 254.1 803.209C265.167 817.076 293.033 844.809 307.433 856.276C347.167 888.009 393.567 910.276 445.433 922.543C475.167 929.609 486.233 930.809 532.767 931.476L576.1 932.143L573.433 929.076C571.967 927.343 561.167 915.609 549.433 903.209C537.567 890.676 510.633 862.009 489.433 839.343C437.7 784.009 436.767 783.076 417.167 770.143C380.9 746.143 358.9 722.143 341.033 686.943C324.1 653.343 316.367 620.009 316.5 579.876C316.5 515.609 338.5 463.609 383.567 420.676C415.833 390.009 459.833 370.409 509.033 365.076C527.567 363.076 561.7 364.409 578.633 367.876C620.9 376.409 658.1 395.743 686.9 424.409C703.7 441.076 714.233 456.142 725.433 479.209C739.3 507.476 746.233 533.076 748.767 563.876C751.567 598.409 746.233 632.809 732.9 665.742C725.947 682.697 715.115 701.692 704.634 715.876C742.333 754.475 763.109 775.657 799.167 812.276L804.1 807.076C830.9 778.409 857.7 728.809 870.767 683.742C879.967 651.876 883.833 623.076 883.833 584.542C883.7 484.542 849.3 400.676 781.3 334.543ZM2159.57 436.542C2135.17 424.409 2109.7 416.676 2082.1 413.209C2066.1 411.209 2025.3 410.543 2009.43 411.876C1967.7 415.609 1922.63 431.209 1887.57 454.143C1835.97 487.743 1797.97 541.343 1782.77 601.876C1777.17 623.876 1775.43 638.409 1775.43 662.009C1775.43 696.276 1779.3 720.676 1788.9 748.809C1812.23 816.543 1855.97 865.342 1919.83 895.209C1973.83 920.409 2051.03 926.676 2112.9 911.076C2171.83 896.276 2220.63 862.009 2253.03 812.676C2257.81 805.359 2260 802.018 2259.24 799.594C2258.61 797.556 2255.89 796.167 2250.9 793.609C2240.1 788.143 2185.3 757.476 2172.37 749.609C2165.97 745.743 2160.23 742.543 2159.7 742.543C2159.17 742.543 2157.17 745.076 2155.17 748.276C2149.17 757.742 2135.57 772.943 2126.37 780.676C2115.97 789.343 2094.9 800.009 2080.63 803.876C2051.97 811.609 2013.43 808.943 1985.83 797.209C1965.17 788.409 1942.23 769.209 1929.7 750.143C1904.63 712.276 1899.17 661.076 1915.03 612.809C1921.3 594.009 1930.63 578.409 1944.37 563.876C1961.7 545.609 1979.17 534.676 2002.1 527.876C2014.63 524.143 2047.03 522.676 2063.3 525.076C2096.77 530.009 2125.7 548.543 2148.37 579.343C2151.83 584.009 2155.03 587.876 2155.57 587.876C2156.9 587.876 2221.57 548.276 2238.9 537.076C2255.43 526.276 2255.7 525.342 2247.03 512.809C2224.37 479.876 2195.17 454.409 2159.57 436.542ZM1113.3 732.809C1106.23 712.276 1106.1 709.209 1106.1 558.143V418.542H1041.43C983.7 418.542 976.633 418.809 975.833 420.676C974.5 424.276 976.5 716.809 978.1 731.209C982.5 773.343 994.5 809.076 1014.23 839.209C1023.43 853.076 1047.83 877.476 1061.43 886.409C1121.57 925.743 1218.77 931.076 1281.83 898.543C1296.37 891.209 1313.57 878.009 1323.03 867.076C1326.63 863.209 1329.83 859.876 1330.37 859.876C1330.9 859.876 1331.57 871.076 1331.7 884.809L1332.1 909.876H1392.1H1452.1L1452.5 664.143L1452.77 418.542L1389.17 418.809L1325.43 419.209L1324.63 563.876C1323.96 697.384 1324.04 713.81 1319.12 728.568C1318.21 731.305 1317.13 733.984 1315.83 737.343C1303.7 768.543 1276.1 790.409 1239.43 797.876C1230.5 799.743 1223.83 800.009 1208.1 799.609C1190.1 798.943 1186.9 798.543 1175.43 794.676C1157.57 788.676 1149.7 783.743 1136.77 770.676C1124.63 758.409 1118.9 749.209 1113.3 732.809ZM1697.43 909.876L1697.83 664.143L1698.1 418.542H1634.1H1570.1L1569.97 488.143V732.543C1570.1 828.543 1570.1 908.009 1570.1 908.943C1570.1 910.276 1583.3 910.543 1633.83 910.276L1697.43 909.876ZM2510.1 566.542C2507.17 566.676 2427.3 453.076 2411.3 426.143L2406.77 418.542H2335.83C2296.77 418.542 2264.77 418.942 2264.77 419.476C2264.77 422.542 2304.37 477.743 2361.43 554.409C2405.57 613.476 2427.7 643.476 2430.1 647.343C2431.43 649.609 2431.43 650.809 2429.43 654.676C2425.57 661.876 2410.5 684.142 2393.43 707.209C2384.77 718.943 2362.5 749.476 2344.1 775.209C2332.85 790.864 2319.25 809.759 2307.74 825.767C2300.42 835.937 2293.94 844.941 2289.43 851.209C2257.3 895.609 2248.77 908.009 2249.57 909.343C2250.37 910.809 2387.43 910.943 2389.57 909.476C2390.5 908.943 2402.1 892.676 2415.43 873.209C2423.57 861.454 2433.3 847.413 2441.59 835.462C2447.03 827.622 2451.84 820.682 2455.17 815.876C2469.03 796.009 2483.57 775.076 2499.43 752.143C2502.5 747.609 2505.7 743.876 2506.23 743.876C2507.97 743.876 2514.5 753.209 2557.03 816.543C2578.63 848.809 2601.7 882.943 2608.37 892.543L2620.23 909.876L2691.17 910.276C2739.17 910.409 2762.1 910.143 2762.1 909.209C2762.1 907.209 2757.03 899.476 2743.57 880.809C2737.17 871.876 2717.17 843.476 2699.17 817.876C2681.17 792.143 2647.83 744.809 2625.03 712.543C2602.1 680.276 2583.43 652.676 2583.43 651.209C2583.43 649.743 2589.3 640.676 2596.37 631.209C2597.78 629.292 2599.42 627.066 2601.21 624.639C2608.38 614.909 2617.94 601.933 2624.77 592.542C2633.3 580.809 2648.37 560.142 2658.37 546.542C2681.83 514.276 2745.83 423.343 2746.9 420.676C2747.7 418.809 2741.43 418.542 2681.03 418.542H2614.37L2610.37 423.476C2608.23 426.276 2601.57 436.009 2595.43 445.209C2589.3 454.409 2570.23 482.009 2552.9 506.542L2552.49 507.125C2511.83 565.085 2510.9 566.41 2510.1 566.542Z" fill="white"/>
<path d="M799.167 812.276L839.7 853.076C861.967 875.476 891.033 904.943 904.1 918.543C917.167 932.143 931.567 946.809 935.967 951.209C960.367 975.076 1035.3 1053.08 1034.5 1053.61C1033.97 1054.01 994.633 1054.68 947.3 1055.21L861.167 1056.28L804.633 999.076C773.433 967.609 741.167 934.676 732.767 925.876C724.367 917.076 713.967 906.409 709.7 902.009L701.833 894.143L680.1 901.076C668.233 904.943 657.033 908.143 655.167 908.276C652.633 908.543 641.033 897.209 594.1 849.476C562.233 816.943 535.967 789.743 535.7 789.076C535.433 788.409 540.233 787.876 547.033 787.876C560.9 787.876 578.633 786.009 593.433 783.076C627.567 776.143 666.633 755.343 692.5 730.143C696.308 726.448 700.443 721.547 704.634 715.876C742.333 754.475 763.109 775.657 799.167 812.276Z" fill="#FF5700"/>
</g>
<defs>
<filter id="filter0_d_84_15" x="176" y="200" width="2590.1" height="864.276" filterUnits="userSpaceOnUse" color-interpolation-filters="sRGB">
<feFlood flood-opacity="0" result="BackgroundImageFix"/>
<feColorMatrix in="SourceAlpha" type="matrix" values="0 0 0 0 0 0 0 0 0 0 0 0 0 0 0 0 0 0 127 0" result="hardAlpha"/>
<feOffset dy="4"/>
<feGaussianBlur stdDeviation="2"/>
<feComposite in2="hardAlpha" operator="out"/>
<feColorMatrix type="matrix" values="0 0 0 0 0 0 0 0 0 0 0 0 0 0 0 0 0 0 0.25 0"/>
<feBlend mode="normal" in2="BackgroundImageFix" result="effect1_dropShadow_84_15"/>
<feBlend mode="normal" in="SourceGraphic" in2="effect1_dropShadow_84_15" result="shape"/>
</filter>
</defs>
</svg>
