<svg width="360" height="360" viewBox="0 0 360 360" fill="none" xmlns="http://www.w3.org/2000/svg">
<circle cx="180" cy="180" r="180" fill="#F6F9FB"/>
<circle cx="180" cy="180" r="171" fill="#F6F9FB" stroke="#00CBBB" stroke-width="10"/>
<circle cx="180" cy="180" r="155" fill="#F6F9FB"/>
<circle cx="181" cy="181" r="158.5" fill="#F6F9FB" stroke="#00CBBB" stroke-width="3"/>
<path d="M231.87 264.254C237.615 261.32 243.063 257.836 248.119 253.839C260.256 244.243 270.131 231.699 276.411 216.748C276.915 215.551 277.39 214.35 277.838 213.144C293.261 171.628 275.996 126.046 237.999 103.141C260.659 125.011 271.273 156.548 265.277 187.542C264.088 193.685 261.167 218.547 242.884 232.398C227.354 246.3 204.219 251.192 183.166 243.119C154.204 232.014 140.148 200.581 151.771 172.91C152.034 172.285 152.307 171.668 152.591 171.058C149.231 175.321 146.397 180.074 144.218 185.263C131.114 216.457 146.497 251.825 178.608 265.069C179.129 265.284 179.654 265.492 180.184 265.696C188.639 268.938 197.386 270.354 205.948 270.142C214.982 269.917 223.81 267.878 231.87 264.254Z" fill="#00CBBB" stroke="#00CBBB" stroke-width="4.05501" stroke-linecap="round" stroke-linejoin="round"/>
<path d="M128.129 96.4752C122.384 99.4093 116.936 102.894 111.88 106.891C99.743 116.487 89.8681 129.031 83.5877 143.981C83.0841 145.179 82.609 146.38 82.1613 147.585C66.7378 189.102 84.0024 234.684 122 257.589C99.3403 235.719 88.7259 204.182 94.7222 173.188C95.9104 167.044 98.8324 142.183 117.115 128.332C132.645 114.43 155.78 109.538 176.833 117.61C205.795 128.716 219.851 160.149 208.227 187.82C207.965 188.445 207.692 189.062 207.408 189.672C210.767 185.409 213.601 180.656 215.781 175.467C228.885 144.273 213.502 108.904 181.391 95.6607C180.87 95.4458 180.345 95.2372 179.815 95.0339C171.36 91.7916 162.613 90.3754 154.05 90.5882C145.017 90.8125 136.189 92.8514 128.129 96.4752Z" fill="#00CBBB" stroke="#00CBBB" stroke-width="4.05501" stroke-linecap="round" stroke-linejoin="round"/>
</svg>
