<svg width="226" height="200" viewBox="0 0 226 200" fill="none" xmlns="http://www.w3.org/2000/svg">
<rect x="30.75" y="22.75" width="67.5" height="22.5" rx="5.25" stroke="#0B1F2A" stroke-width="1.5"/>
<path d="M42.7506 40V28.72H47.3106C48.1213 28.72 48.8093 28.8533 49.3746 29.12C49.94 29.3867 50.3666 29.776 50.6546 30.288C50.9533 30.7893 51.1026 31.4027 51.1026 32.128C51.1026 32.8533 50.9533 33.472 50.6546 33.984C50.3666 34.496 49.94 34.8853 49.3746 35.152C48.8093 35.4187 48.1213 35.552 47.3106 35.552H44.2386V40H42.7506ZM44.2386 34.352H47.1186C47.9506 34.352 48.5746 34.1653 48.9906 33.792C49.4173 33.408 49.6306 32.8533 49.6306 32.128C49.6306 31.4027 49.4173 30.8587 48.9906 30.496C48.5746 30.1227 47.9506 29.936 47.1186 29.936H44.2386V34.352ZM52.9701 40V28.72H54.2181L58.7141 37.152H58.2181L62.6981 28.72H63.9301V40H62.5861V30.784H62.9381L58.9221 38.272H57.9941L53.9301 30.768H54.3141V40H52.9701ZM65.5525 40L70.5445 28.72H71.8085L76.8005 40H75.2805L73.9045 36.8L74.5925 37.184H67.7445L68.4325 36.8L67.0725 40H65.5525ZM71.1525 30.4L68.6565 36.304L68.2725 35.968H74.0645L73.6965 36.304L71.1845 30.4H71.1525ZM78.4069 40V28.72H82.2949C83.5215 28.72 84.5615 28.9387 85.4149 29.376C86.2789 29.8027 86.9349 30.4373 87.3829 31.28C87.8309 32.112 88.0549 33.136 88.0549 34.352C88.0549 35.568 87.8309 36.5973 87.3829 37.44C86.9349 38.272 86.2789 38.9067 85.4149 39.344C84.5615 39.7813 83.5215 40 82.2949 40H78.4069ZM79.8949 38.736H82.1989C83.6389 38.736 84.7162 38.3733 85.4309 37.648C86.1455 36.912 86.5029 35.8133 86.5029 34.352C86.5029 32.8907 86.1402 31.7973 85.4149 31.072C84.7002 30.3467 83.6282 29.984 82.1989 29.984H79.8949V38.736Z" fill="#0F172A"/>
<rect x="57.75" y="125.75" width="148.5" height="24.5" rx="5.25" stroke="#0B1F2A" stroke-width="1.5"/>
<path d="M67.0318 142V136.579H65.7968V135.669H67.3568L67.0318 135.981V135.5C67.0318 134.642 67.2484 133.996 67.6818 133.563C68.1151 133.121 68.7824 132.874 69.6838 132.822L70.2168 132.783L70.3078 133.693L69.7098 133.732C69.3544 133.749 69.0684 133.823 68.8518 133.953C68.6351 134.074 68.4748 134.252 68.3708 134.486C68.2668 134.711 68.2148 134.997 68.2148 135.344V135.864L68.0458 135.669H70.0088V136.579H68.2148V142H67.0318ZM73.0372 142.117C72.6039 142.117 72.2096 142.03 71.8542 141.857C71.5076 141.684 71.2346 141.45 71.0352 141.155C70.8446 140.86 70.7492 140.531 70.7492 140.167C70.7492 139.699 70.8662 139.331 71.1002 139.062C71.3342 138.793 71.7286 138.603 72.2832 138.49C72.8379 138.369 73.5832 138.308 74.5192 138.308H75.1302V139.062H74.5452C74.0426 139.062 73.6222 139.079 73.2842 139.114C72.9462 139.149 72.6776 139.205 72.4782 139.283C72.2789 139.361 72.1359 139.469 72.0492 139.608C71.9626 139.738 71.9192 139.903 71.9192 140.102C71.9192 140.44 72.0362 140.717 72.2702 140.934C72.5129 141.151 72.8422 141.259 73.2582 141.259C73.5876 141.259 73.8779 141.181 74.1292 141.025C74.3806 140.86 74.5799 140.644 74.7272 140.375C74.8746 140.098 74.9482 139.781 74.9482 139.426V137.931C74.9482 137.42 74.8442 137.051 74.6362 136.826C74.4282 136.592 74.0772 136.475 73.5832 136.475C73.2192 136.475 72.8552 136.531 72.4912 136.644C72.1359 136.757 71.7676 136.93 71.3862 137.164L71.0092 136.319C71.2346 136.163 71.4902 136.029 71.7762 135.916C72.0709 135.795 72.3742 135.704 72.6862 135.643C73.0069 135.582 73.3146 135.552 73.6092 135.552C74.1726 135.552 74.6362 135.643 75.0002 135.825C75.3642 135.998 75.6372 136.271 75.8192 136.644C76.0012 137.008 76.0922 137.476 76.0922 138.048V142H74.9742V140.557H75.0912C75.0219 140.878 74.8919 141.155 74.7012 141.389C74.5106 141.623 74.2722 141.805 73.9862 141.935C73.7089 142.056 73.3926 142.117 73.0372 142.117ZM80.1379 142.117C79.8085 142.117 79.4835 142.087 79.1629 142.026C78.8509 141.965 78.5605 141.879 78.2919 141.766C78.0319 141.645 77.8022 141.502 77.6029 141.337L77.9539 140.518C78.1619 140.674 78.3872 140.808 78.6299 140.921C78.8725 141.025 79.1239 141.103 79.3839 141.155C79.6439 141.207 79.9039 141.233 80.1639 141.233C80.6405 141.233 81.0002 141.146 81.2429 140.973C81.4855 140.8 81.6069 140.57 81.6069 140.284C81.6069 140.041 81.5245 139.855 81.3599 139.725C81.2039 139.586 80.9569 139.482 80.6189 139.413L79.4099 139.166C78.8725 139.045 78.4652 138.845 78.1879 138.568C77.9192 138.282 77.7849 137.918 77.7849 137.476C77.7849 137.086 77.8889 136.748 78.0969 136.462C78.3135 136.167 78.6125 135.942 78.9939 135.786C79.3752 135.63 79.8129 135.552 80.3069 135.552C80.6015 135.552 80.8875 135.582 81.1649 135.643C81.4422 135.704 81.7022 135.79 81.9449 135.903C82.1875 136.016 82.3912 136.163 82.5559 136.345L82.1919 137.151C82.0272 136.995 81.8409 136.865 81.6329 136.761C81.4249 136.657 81.2082 136.579 80.9829 136.527C80.7575 136.466 80.5322 136.436 80.3069 136.436C79.8389 136.436 79.4835 136.527 79.2409 136.709C79.0069 136.891 78.8899 137.129 78.8899 137.424C78.8899 137.649 78.9592 137.836 79.0979 137.983C79.2452 138.13 79.4749 138.239 79.7869 138.308L80.9959 138.555C81.5592 138.676 81.9839 138.871 82.2699 139.14C82.5559 139.4 82.6989 139.755 82.6989 140.206C82.6989 140.605 82.5905 140.947 82.3739 141.233C82.1659 141.519 81.8669 141.74 81.4769 141.896C81.0955 142.043 80.6492 142.117 80.1379 142.117ZM86.8006 142.117C86.0293 142.117 85.4529 141.918 85.0716 141.519C84.6903 141.112 84.4996 140.531 84.4996 139.777V136.579H83.2646V135.669H84.4996V133.745H85.6826V135.669H87.6716V136.579H85.6826V139.673C85.6826 140.15 85.7823 140.509 85.9816 140.752C86.1809 140.995 86.5103 141.116 86.9696 141.116C87.1083 141.116 87.2426 141.103 87.3726 141.077C87.5113 141.042 87.6413 141.008 87.7626 140.973L87.9576 141.857C87.8363 141.935 87.6629 141.996 87.4376 142.039C87.2209 142.091 87.0086 142.117 86.8006 142.117ZM91.6953 142.117C91.0106 142.117 90.4213 141.987 89.9273 141.727C89.442 141.458 89.065 141.081 88.7963 140.596C88.5276 140.102 88.3933 139.521 88.3933 138.854C88.3933 138.195 88.5233 137.619 88.7833 137.125C89.052 136.631 89.416 136.245 89.8753 135.968C90.3433 135.691 90.8763 135.552 91.4743 135.552C92.055 135.552 92.549 135.678 92.9563 135.929C93.3723 136.18 93.6886 136.54 93.9053 137.008C94.1306 137.467 94.2433 138.022 94.2433 138.672V139.101H89.3163V138.347H93.4633L93.2423 138.529C93.2423 137.853 93.095 137.333 92.8003 136.969C92.5056 136.596 92.0723 136.41 91.5003 136.41C91.0843 136.41 90.729 136.51 90.4343 136.709C90.1396 136.9 89.9143 137.173 89.7583 137.528C89.6023 137.875 89.5243 138.278 89.5243 138.737V138.815C89.5243 139.335 89.6066 139.773 89.7713 140.128C89.9446 140.475 90.1916 140.739 90.5123 140.921C90.833 141.094 91.2273 141.181 91.6953 141.181C92.068 141.181 92.4276 141.125 92.7743 141.012C93.1296 140.891 93.4633 140.704 93.7753 140.453L94.1393 141.272C93.8533 141.532 93.485 141.74 93.0343 141.896C92.5923 142.043 92.146 142.117 91.6953 142.117ZM97.8986 142.117C97.5693 142.117 97.2443 142.087 96.9236 142.026C96.6116 141.965 96.3213 141.879 96.0526 141.766C95.7926 141.645 95.563 141.502 95.3636 141.337L95.7146 140.518C95.9226 140.674 96.148 140.808 96.3906 140.921C96.6333 141.025 96.8846 141.103 97.1446 141.155C97.4046 141.207 97.6646 141.233 97.9246 141.233C98.4013 141.233 98.761 141.146 99.0036 140.973C99.2463 140.8 99.3676 140.57 99.3676 140.284C99.3676 140.041 99.2853 139.855 99.1206 139.725C98.9646 139.586 98.7176 139.482 98.3796 139.413L97.1706 139.166C96.6333 139.045 96.226 138.845 95.9486 138.568C95.68 138.282 95.5456 137.918 95.5456 137.476C95.5456 137.086 95.6496 136.748 95.8576 136.462C96.0743 136.167 96.3733 135.942 96.7546 135.786C97.136 135.63 97.5736 135.552 98.0676 135.552C98.3623 135.552 98.6483 135.582 98.9256 135.643C99.203 135.704 99.463 135.79 99.7056 135.903C99.9483 136.016 100.152 136.163 100.317 136.345L99.9526 137.151C99.788 136.995 99.6016 136.865 99.3936 136.761C99.1856 136.657 98.969 136.579 98.7436 136.527C98.5183 136.466 98.293 136.436 98.0676 136.436C97.5996 136.436 97.2443 136.527 97.0016 136.709C96.7676 136.891 96.6506 137.129 96.6506 137.424C96.6506 137.649 96.72 137.836 96.8586 137.983C97.006 138.13 97.2356 138.239 97.5476 138.308L98.7566 138.555C99.32 138.676 99.7446 138.871 100.031 139.14C100.317 139.4 100.46 139.755 100.46 140.206C100.46 140.605 100.351 140.947 100.135 141.233C99.9266 141.519 99.6276 141.74 99.2376 141.896C98.8563 142.043 98.41 142.117 97.8986 142.117ZM104.561 142.117C103.79 142.117 103.214 141.918 102.832 141.519C102.451 141.112 102.26 140.531 102.26 139.777V136.579H101.025V135.669H102.26V133.745H103.443V135.669H105.432V136.579H103.443V139.673C103.443 140.15 103.543 140.509 103.742 140.752C103.942 140.995 104.271 141.116 104.73 141.116C104.869 141.116 105.003 141.103 105.133 141.077C105.272 141.042 105.402 141.008 105.523 140.973L105.718 141.857C105.597 141.935 105.424 141.996 105.198 142.039C104.982 142.091 104.769 142.117 104.561 142.117ZM109.971 144.34V135.669H111.128V137.125H110.998C111.137 136.648 111.41 136.267 111.817 135.981C112.225 135.695 112.714 135.552 113.286 135.552C113.85 135.552 114.339 135.686 114.755 135.955C115.171 136.215 115.496 136.592 115.73 137.086C115.964 137.571 116.081 138.152 116.081 138.828C116.081 139.495 115.964 140.08 115.73 140.583C115.505 141.077 115.18 141.458 114.755 141.727C114.339 141.987 113.85 142.117 113.286 142.117C112.723 142.117 112.238 141.974 111.83 141.688C111.423 141.402 111.15 141.025 111.011 140.557H111.154V144.34H109.971ZM113.013 141.181C113.585 141.181 114.04 140.982 114.378 140.583C114.716 140.176 114.885 139.591 114.885 138.828C114.885 138.065 114.716 137.485 114.378 137.086C114.04 136.687 113.585 136.488 113.013 136.488C112.441 136.488 111.986 136.687 111.648 137.086C111.31 137.485 111.141 138.065 111.141 138.828C111.141 139.591 111.31 140.176 111.648 140.583C111.986 140.982 112.441 141.181 113.013 141.181ZM117.601 142V135.669H118.758V137.177H118.628C118.767 136.657 119.018 136.267 119.382 136.007C119.746 135.738 120.227 135.582 120.825 135.539L121.228 135.5L121.319 136.527L120.578 136.592C120.006 136.653 119.564 136.839 119.252 137.151C118.949 137.463 118.797 137.892 118.797 138.438V142H117.601ZM124.952 142.117C124.328 142.117 123.786 141.983 123.327 141.714C122.867 141.445 122.512 141.064 122.261 140.57C122.009 140.076 121.884 139.495 121.884 138.828C121.884 138.161 122.009 137.584 122.261 137.099C122.512 136.605 122.867 136.224 123.327 135.955C123.786 135.686 124.328 135.552 124.952 135.552C125.576 135.552 126.117 135.686 126.577 135.955C127.036 136.224 127.391 136.605 127.643 137.099C127.894 137.584 128.02 138.161 128.02 138.828C128.02 139.495 127.894 140.076 127.643 140.57C127.391 141.064 127.036 141.445 126.577 141.714C126.117 141.983 125.576 142.117 124.952 142.117ZM124.952 141.181C125.524 141.181 125.979 140.982 126.317 140.583C126.655 140.176 126.824 139.591 126.824 138.828C126.824 138.065 126.655 137.485 126.317 137.086C125.979 136.687 125.524 136.488 124.952 136.488C124.388 136.488 123.933 136.687 123.587 137.086C123.249 137.485 123.08 138.065 123.08 138.828C123.08 139.591 123.249 140.176 123.587 140.583C123.933 140.982 124.388 141.181 124.952 141.181ZM132.278 142.117C131.637 142.117 131.082 141.983 130.614 141.714C130.146 141.437 129.786 141.051 129.535 140.557C129.284 140.054 129.158 139.465 129.158 138.789C129.158 138.122 129.284 137.545 129.535 137.06C129.786 136.575 130.146 136.202 130.614 135.942C131.082 135.682 131.637 135.552 132.278 135.552C132.677 135.552 133.067 135.621 133.448 135.76C133.838 135.899 134.159 136.094 134.41 136.345L134.02 137.177C133.769 136.952 133.496 136.783 133.201 136.67C132.906 136.557 132.625 136.501 132.356 136.501C131.723 136.501 131.234 136.7 130.887 137.099C130.54 137.498 130.367 138.065 130.367 138.802C130.367 139.539 130.54 140.119 130.887 140.544C131.234 140.96 131.723 141.168 132.356 141.168C132.625 141.168 132.906 141.112 133.201 140.999C133.496 140.886 133.769 140.713 134.02 140.479L134.41 141.324C134.159 141.575 133.834 141.77 133.435 141.909C133.045 142.048 132.659 142.117 132.278 142.117ZM141.581 142.117C140.81 142.117 140.233 141.918 139.852 141.519C139.471 141.112 139.28 140.531 139.28 139.777V136.579H138.045V135.669H139.28V133.745H140.463V135.669H142.452V136.579H140.463V139.673C140.463 140.15 140.563 140.509 140.762 140.752C140.961 140.995 141.291 141.116 141.75 141.116C141.889 141.116 142.023 141.103 142.153 141.077C142.292 141.042 142.422 141.008 142.543 140.973L142.738 141.857C142.617 141.935 142.443 141.996 142.218 142.039C142.001 142.091 141.789 142.117 141.581 142.117ZM143.614 142V135.669H144.771V137.177H144.641C144.78 136.657 145.031 136.267 145.395 136.007C145.759 135.738 146.24 135.582 146.838 135.539L147.241 135.5L147.332 136.527L146.591 136.592C146.019 136.653 145.577 136.839 145.265 137.151C144.962 137.463 144.81 137.892 144.81 138.438V142H143.614ZM150.314 142.117C149.88 142.117 149.486 142.03 149.131 141.857C148.784 141.684 148.511 141.45 148.312 141.155C148.121 140.86 148.026 140.531 148.026 140.167C148.026 139.699 148.143 139.331 148.377 139.062C148.611 138.793 149.005 138.603 149.56 138.49C150.114 138.369 150.86 138.308 151.796 138.308H152.407V139.062H151.822C151.319 139.062 150.899 139.079 150.561 139.114C150.223 139.149 149.954 139.205 149.755 139.283C149.555 139.361 149.412 139.469 149.326 139.608C149.239 139.738 149.196 139.903 149.196 140.102C149.196 140.44 149.313 140.717 149.547 140.934C149.789 141.151 150.119 141.259 150.535 141.259C150.864 141.259 151.154 141.181 151.406 141.025C151.657 140.86 151.856 140.644 152.004 140.375C152.151 140.098 152.225 139.781 152.225 139.426V137.931C152.225 137.42 152.121 137.051 151.913 136.826C151.705 136.592 151.354 136.475 150.86 136.475C150.496 136.475 150.132 136.531 149.768 136.644C149.412 136.757 149.044 136.93 148.663 137.164L148.286 136.319C148.511 136.163 148.767 136.029 149.053 135.916C149.347 135.795 149.651 135.704 149.963 135.643C150.283 135.582 150.591 135.552 150.886 135.552C151.449 135.552 151.913 135.643 152.277 135.825C152.641 135.998 152.914 136.271 153.096 136.644C153.278 137.008 153.369 137.476 153.369 138.048V142H152.251V140.557H152.368C152.298 140.878 152.168 141.155 151.978 141.389C151.787 141.623 151.549 141.805 151.263 141.935C150.985 142.056 150.669 142.117 150.314 142.117ZM155.113 134.148V132.874H156.53V134.148H155.113ZM155.23 142V135.669H156.413V142H155.23ZM158.315 142V135.669H159.472V137.047H159.329C159.511 136.553 159.806 136.18 160.213 135.929C160.629 135.678 161.102 135.552 161.63 135.552C162.142 135.552 162.562 135.643 162.891 135.825C163.221 136.007 163.468 136.289 163.632 136.67C163.797 137.043 163.879 137.511 163.879 138.074V142H162.696V138.139C162.696 137.766 162.649 137.459 162.553 137.216C162.458 136.973 162.306 136.796 162.098 136.683C161.899 136.57 161.643 136.514 161.331 136.514C160.967 136.514 160.647 136.592 160.369 136.748C160.092 136.904 159.875 137.125 159.719 137.411C159.572 137.697 159.498 138.031 159.498 138.412V142H158.315ZM165.638 134.148V132.874H167.055V134.148H165.638ZM165.755 142V135.669H166.938V142H165.755ZM168.84 142V135.669H169.997V137.047H169.854C170.036 136.553 170.33 136.18 170.738 135.929C171.154 135.678 171.626 135.552 172.155 135.552C172.666 135.552 173.086 135.643 173.416 135.825C173.745 136.007 173.992 136.289 174.157 136.67C174.321 137.043 174.404 137.511 174.404 138.074V142H173.221V138.139C173.221 137.766 173.173 137.459 173.078 137.216C172.982 136.973 172.831 136.796 172.623 136.683C172.423 136.57 172.168 136.514 171.856 136.514C171.492 136.514 171.171 136.592 170.894 136.748C170.616 136.904 170.4 137.125 170.244 137.411C170.096 137.697 170.023 138.031 170.023 138.412V142H168.84ZM179.126 144.457C178.563 144.457 178.038 144.388 177.553 144.249C177.068 144.11 176.634 143.898 176.253 143.612L176.63 142.754C176.89 142.927 177.146 143.07 177.397 143.183C177.657 143.304 177.921 143.391 178.19 143.443C178.467 143.495 178.753 143.521 179.048 143.521C179.663 143.521 180.123 143.361 180.426 143.04C180.738 142.728 180.894 142.269 180.894 141.662V140.258H181.011C180.89 140.743 180.617 141.129 180.192 141.415C179.776 141.701 179.291 141.844 178.736 141.844C178.164 141.844 177.666 141.714 177.241 141.454C176.816 141.185 176.487 140.817 176.253 140.349C176.019 139.872 175.902 139.322 175.902 138.698C175.902 138.065 176.019 137.515 176.253 137.047C176.487 136.57 176.816 136.202 177.241 135.942C177.666 135.682 178.164 135.552 178.736 135.552C179.299 135.552 179.789 135.695 180.205 135.981C180.621 136.267 180.89 136.653 181.011 137.138H180.894V135.669H182.051V141.506C182.051 142.156 181.938 142.702 181.713 143.144C181.496 143.586 181.171 143.915 180.738 144.132C180.305 144.349 179.767 144.457 179.126 144.457ZM178.996 140.908C179.577 140.908 180.036 140.709 180.374 140.31C180.712 139.911 180.881 139.374 180.881 138.698C180.881 138.013 180.712 137.476 180.374 137.086C180.036 136.687 179.577 136.488 178.996 136.488C178.415 136.488 177.952 136.687 177.605 137.086C177.267 137.476 177.098 138.013 177.098 138.698C177.098 139.374 177.267 139.911 177.605 140.31C177.952 140.709 178.415 140.908 178.996 140.908ZM189.339 142.117C188.663 142.117 188.156 141.926 187.818 141.545C187.489 141.155 187.324 140.596 187.324 139.868V132.835H188.507V139.777C188.507 140.072 188.546 140.323 188.624 140.531C188.711 140.73 188.832 140.878 188.988 140.973C189.153 141.068 189.356 141.116 189.599 141.116C189.694 141.116 189.79 141.112 189.885 141.103C189.989 141.094 190.084 141.077 190.171 141.051L190.145 142.013C190.006 142.048 189.868 142.074 189.729 142.091C189.599 142.108 189.469 142.117 189.339 142.117ZM191.117 134.148V132.874H192.534V134.148H191.117ZM191.234 142V135.669H192.417V142H191.234ZM197.634 142.117C197.062 142.117 196.572 141.974 196.165 141.688C195.758 141.402 195.485 141.016 195.346 140.531H195.476V142H194.319V132.835H195.502V137.099H195.359C195.498 136.631 195.771 136.258 196.178 135.981C196.585 135.695 197.071 135.552 197.634 135.552C198.197 135.552 198.687 135.686 199.103 135.955C199.528 136.215 199.853 136.592 200.078 137.086C200.312 137.571 200.429 138.152 200.429 138.828C200.429 139.495 200.312 140.08 200.078 140.583C199.844 141.077 199.519 141.458 199.103 141.727C198.687 141.987 198.197 142.117 197.634 142.117ZM197.361 141.181C197.933 141.181 198.388 140.982 198.726 140.583C199.064 140.176 199.233 139.591 199.233 138.828C199.233 138.065 199.064 137.485 198.726 137.086C198.388 136.687 197.933 136.488 197.361 136.488C196.789 136.488 196.334 136.687 195.996 137.086C195.658 137.485 195.489 138.065 195.489 138.828C195.489 139.591 195.658 140.176 195.996 140.583C196.334 140.982 196.789 141.181 197.361 141.181Z" fill="#0F172A"/>
<path d="M163.793 56.2071C164.183 56.5976 164.817 56.5976 165.207 56.2071L171.571 49.8431C171.962 49.4526 171.962 48.8195 171.571 48.4289C171.181 48.0384 170.547 48.0384 170.157 48.4289L164.5 54.0858L158.843 48.4289C158.453 48.0384 157.819 48.0384 157.429 48.4289C157.038 48.8195 157.038 49.4526 157.429 49.8431L163.793 56.2071ZM99 34V35H163.5V34V33H99V34ZM164.5 35H163.5V55.5H164.5H165.5V35H164.5ZM163.5 34V35V35H164.5H165.5C165.5 33.8954 164.605 33 163.5 33V34Z" fill="#0B1F2A"/>
<path d="M86.2071 149.793C85.8166 149.402 85.1834 149.402 84.7929 149.793L78.4289 156.157C78.0384 156.547 78.0384 157.181 78.4289 157.571C78.8195 157.962 79.4526 157.962 79.8431 157.571L85.5 151.914L91.1569 157.571C91.5474 157.962 92.1805 157.962 92.5711 157.571C92.9616 157.181 92.9616 156.547 92.5711 156.157L86.2071 149.793ZM85.5 150.5H84.5V163H85.5H86.5V150.5H85.5ZM84.5 164V163H17V164V165H84.5V164ZM16 163H17V35H16H15V163H16ZM17 34V35H30.5V34V33H17V34ZM16 35H17V35V34V33C15.8954 33 15 33.8954 15 35H16ZM17 164V163H17H16H15C15 164.105 15.8954 165 17 165V164ZM85.5 163H84.5V163V164V165C85.6046 165 86.5 164.105 86.5 163H85.5Z" fill="#0B1F2A"/>
<rect x="31.0312" y="54.0312" width="175.625" height="65.75" rx="7.09375" fill="#0B1920"/>
<rect x="31.0312" y="54.0312" width="175.625" height="65.75" rx="7.09375" stroke="black" stroke-width="0.0625"/>
<g filter="url(#filter0_d_189_144)">
<path fill-rule="evenodd" clip-rule="evenodd" d="M131.498 62.9004C131.015 61.2671 129.606 59.9754 127.923 59.6171C126.165 59.2504 124.298 59.7588 123.115 60.9338C122.198 61.8338 121.798 62.8588 121.798 64.2838C121.798 65.7004 122.223 66.7588 123.173 67.7171C124.231 68.7754 125.49 69.2338 127.098 69.1338C129.248 69.0088 130.99 67.6171 131.506 65.6171C131.673 64.9504 131.673 63.4921 131.498 62.9004ZM73.3312 67.9088C69.6146 64.3088 65.0396 62.3338 59.4229 61.9171C54.8813 61.5754 50.3146 62.5588 46.6313 64.6754C43.4896 66.4838 41.2812 68.5421 39.2812 71.5254C37.5479 74.1171 36.3896 77.1088 35.9062 80.2421C35.6979 81.6004 35.6979 85.2171 35.9062 86.5754C36.5563 90.7671 38.0062 94.2171 40.3812 97.2004C41.0729 98.0671 42.8146 99.8004 43.7146 100.517C46.1979 102.5 49.0979 103.892 52.3396 104.659C54.1979 105.1 54.8896 105.175 57.7979 105.217L60.5063 105.259L60.3396 105.067C60.2479 104.959 59.5729 104.225 58.8396 103.45C58.0979 102.667 56.4146 100.875 55.0896 99.4588C51.8563 96.0004 51.7979 95.9421 50.5729 95.1338C48.3063 93.6338 46.9313 92.1338 45.8146 89.9338C44.7563 87.8338 44.2729 85.7504 44.2813 83.2421C44.2813 79.2254 45.6562 75.9754 48.4729 73.2921C50.4896 71.3754 53.2396 70.1504 56.3146 69.8171C57.4729 69.6921 59.6063 69.7754 60.6646 69.9921C63.3063 70.5254 65.6313 71.7338 67.4313 73.5254C68.4813 74.5671 69.1396 75.5088 69.8396 76.9504C70.7063 78.7171 71.1396 80.3171 71.2979 82.2421C71.4729 84.4004 71.1396 86.5504 70.3063 88.6088C69.8717 89.6684 69.1947 90.8556 68.5396 91.7421C70.8958 94.1545 72.1943 95.4784 74.4479 97.7671L74.7563 97.4421C76.4313 95.6504 78.1062 92.5504 78.9229 89.7338C79.4979 87.7421 79.7396 85.9421 79.7396 83.5338C79.7313 77.2838 77.5812 72.0421 73.3312 67.9088ZM159.473 74.2838C157.948 73.5254 156.356 73.0421 154.631 72.8254C153.631 72.7004 151.081 72.6588 150.09 72.7421C147.481 72.9754 144.665 73.9504 142.473 75.3838C139.248 77.4838 136.873 80.8338 135.923 84.6171C135.573 85.9921 135.465 86.9004 135.465 88.3754C135.465 90.5171 135.706 92.0421 136.306 93.8004C137.765 98.0338 140.498 101.084 144.49 102.95C147.865 104.525 152.69 104.917 156.556 103.942C160.24 103.017 163.29 100.875 165.315 97.7921C165.613 97.3348 165.75 97.126 165.703 96.9745C165.663 96.8471 165.493 96.7603 165.181 96.6004C164.506 96.2588 161.081 94.3421 160.273 93.8504C159.873 93.6088 159.515 93.4088 159.481 93.4088C159.448 93.4088 159.323 93.5671 159.198 93.7671C158.823 94.3588 157.973 95.3088 157.398 95.7921C156.748 96.3338 155.431 97.0004 154.54 97.2421C152.748 97.7254 150.34 97.5588 148.615 96.8254C147.323 96.2754 145.89 95.0754 145.106 93.8838C143.54 91.5171 143.198 88.3171 144.19 85.3004C144.581 84.1254 145.165 83.1504 146.023 82.2421C147.106 81.1004 148.198 80.4171 149.631 79.9921C150.415 79.7588 152.44 79.6671 153.456 79.8171C155.548 80.1254 157.356 81.2838 158.773 83.2088C158.99 83.5004 159.19 83.7421 159.223 83.7421C159.306 83.7421 163.348 81.2671 164.431 80.5671C165.465 79.8921 165.481 79.8338 164.94 79.0504C163.523 76.9921 161.698 75.4004 159.473 74.2838ZM94.0813 92.8004C93.6396 91.5171 93.6312 91.3254 93.6312 81.8838V73.1588H89.5896C85.9813 73.1588 85.5396 73.1754 85.4896 73.2921C85.4063 73.5171 85.5313 91.8004 85.6313 92.7004C85.9063 95.3338 86.6563 97.5671 87.8896 99.4504C88.4646 100.317 89.9896 101.842 90.8396 102.4C94.5979 104.859 100.673 105.192 104.615 103.159C105.523 102.7 106.598 101.875 107.19 101.192C107.415 100.95 107.615 100.742 107.648 100.742C107.681 100.742 107.723 101.442 107.731 102.3L107.756 103.867H111.506H115.256L115.281 88.5088L115.298 73.1588L111.323 73.1754L107.34 73.2004L107.29 82.2421C107.247 90.5863 107.253 91.613 106.945 92.5354C106.888 92.7064 106.82 92.8739 106.74 93.0838C105.981 95.0338 104.256 96.4004 101.965 96.8671C101.406 96.9838 100.99 97.0004 100.006 96.9754C98.8813 96.9338 98.6813 96.9088 97.9646 96.6671C96.8479 96.2921 96.3563 95.9838 95.5479 95.1671C94.7896 94.4004 94.4313 93.8254 94.0813 92.8004ZM130.59 103.867L130.615 88.5088L130.631 73.1588H126.631H122.631L122.623 77.5088V92.7838C122.631 98.7838 122.631 103.75 122.631 103.809C122.631 103.892 123.456 103.909 126.615 103.892L130.59 103.867ZM181.381 82.4088C181.198 82.4171 176.206 75.3171 175.206 73.6338L174.923 73.1588H170.49C168.048 73.1588 166.048 73.1838 166.048 73.2171C166.048 73.4088 168.523 76.8588 172.09 81.6504C174.848 85.3421 176.231 87.2171 176.381 87.4588C176.465 87.6004 176.465 87.6754 176.34 87.9171C176.098 88.3671 175.156 89.7588 174.09 91.2004C173.548 91.9338 172.156 93.8421 171.006 95.4504C170.303 96.4288 169.453 97.6098 168.734 98.6103C168.276 99.2459 167.871 99.8087 167.59 100.2C165.581 102.975 165.048 103.75 165.098 103.834C165.148 103.925 173.715 103.934 173.848 103.842C173.906 103.809 174.631 102.792 175.465 101.575C175.973 100.841 176.581 99.9632 177.099 99.2162C177.439 98.7263 177.74 98.2925 177.948 97.9921C178.815 96.7504 179.723 95.4421 180.715 94.0088C180.906 93.7254 181.106 93.4921 181.14 93.4921C181.248 93.4921 181.656 94.0754 184.315 98.0338C185.665 100.05 187.106 102.184 187.523 102.784L188.265 103.867L192.698 103.892C195.698 103.9 197.131 103.884 197.131 103.825C197.131 103.7 196.815 103.217 195.973 102.05C195.573 101.492 194.323 99.7171 193.198 98.1171C192.073 96.5088 189.99 93.5504 188.565 91.5338C187.131 89.5171 185.965 87.7921 185.965 87.7004C185.965 87.6088 186.331 87.0421 186.773 86.4504C186.861 86.3306 186.964 86.1915 187.075 86.0398C187.523 85.4317 188.121 84.6206 188.548 84.0338C189.081 83.3004 190.023 82.0088 190.648 81.1588C192.115 79.1421 196.115 73.4588 196.181 73.2921C196.231 73.1754 195.84 73.1588 192.065 73.1588H187.898L187.648 73.4671C187.515 73.6421 187.098 74.2504 186.715 74.8254C186.331 75.4004 185.14 77.1254 184.056 78.6588L184.031 78.6952C181.489 82.3176 181.431 82.4004 181.381 82.4088Z" fill="white"/>
<path d="M74.4479 97.7671L76.9813 100.317C78.3729 101.717 80.1896 103.559 81.0063 104.409C81.8229 105.259 82.7229 106.175 82.9979 106.45C84.5229 107.942 89.2063 112.817 89.1562 112.85C89.1229 112.875 86.6646 112.917 83.7063 112.95L78.3229 113.017L74.7896 109.442C72.8396 107.475 70.8229 105.417 70.2979 104.867C69.7729 104.317 69.1229 103.65 68.8563 103.375L68.3646 102.884L67.0063 103.317C66.2646 103.559 65.5646 103.759 65.4479 103.767C65.2896 103.784 64.5646 103.075 61.6313 100.092C59.6396 98.0588 57.9979 96.3588 57.9813 96.3171C57.9646 96.2754 58.2646 96.2421 58.6896 96.2421C59.5563 96.2421 60.6646 96.1254 61.5896 95.9421C63.7229 95.5088 66.1646 94.2088 67.7812 92.6338C68.0193 92.4029 68.2777 92.0965 68.5396 91.7421C70.8958 94.1545 72.1943 95.4784 74.4479 97.7671Z" fill="#FF5700"/>
</g>
<defs>
<filter id="filter0_d_189_144" x="35.5" y="59.5" width="161.881" height="54.0171" filterUnits="userSpaceOnUse" color-interpolation-filters="sRGB">
<feFlood flood-opacity="0" result="BackgroundImageFix"/>
<feColorMatrix in="SourceAlpha" type="matrix" values="0 0 0 0 0 0 0 0 0 0 0 0 0 0 0 0 0 0 127 0" result="hardAlpha"/>
<feOffset dy="0.25"/>
<feGaussianBlur stdDeviation="0.125"/>
<feComposite in2="hardAlpha" operator="out"/>
<feColorMatrix type="matrix" values="0 0 0 0 0 0 0 0 0 0 0 0 0 0 0 0 0 0 0.25 0"/>
<feBlend mode="normal" in2="BackgroundImageFix" result="effect1_dropShadow_189_144"/>
<feBlend mode="normal" in="SourceGraphic" in2="effect1_dropShadow_189_144" result="shape"/>
</filter>
</defs>
</svg>
